<svg width="1169" height="240" viewBox="0 0 1169 240" fill="none" xmlns="http://www.w3.org/2000/svg">
<path d="M30.084 209.964H0.334V148.798H31.75V208.298H149.084V0.0479839H180.5V209.964H150.75V239.952H30.084V209.964ZM247.14 31.464V148.798H334.724V119.048H364.474V61.214H334.724V31.464H247.14ZM247.14 239.952H215.724V0.0479839H336.39V29.798H366.14V59.548H395.89V120.714H366.14V150.464H336.39V180.214H247.14V239.952ZM611.28 239.952H431.114V0.0479839H611.28V31.464H462.53V89.298H581.53V120.714H462.53V208.298H611.28V239.952ZM706.004 209.964H676.254V180.214H646.504V59.548H676.254V29.798H706.004V0.0479839H826.67V29.798H856.42V61.214H825.004V31.464H707.67V61.214H677.92V178.548H707.67V208.298H825.004V150.464H735.754V119.048H856.42V209.964H826.67V239.952H706.004V209.964ZM1019.45 239.952H988.034V178.548H1017.78V148.798H1047.53V90.964H1017.78V61.214H988.034V0.0479839H1019.45V59.548H1049.2V89.298H1107.03V59.548H1136.78V0.0479839H1168.2V61.214H1138.45V90.964H1108.7V148.798H1138.45V178.548H1168.2V239.952H1136.78V180.214H1107.03V150.464H1049.2V180.214H1019.45V239.952Z" fill="white"/>
</svg>
