<svg width="26" height="20" viewBox="0 0 26 20" fill="none" xmlns="http://www.w3.org/2000/svg">
<rect x="8.6438" y="0.665405" width="0.622305" height="0.622305" fill="white"/>
<rect x="9.26611" y="0.665405" width="0.622305" height="0.622305" fill="white"/>
<rect x="16.1113" y="0.665405" width="0.622305" height="0.622305" fill="white"/>
<rect x="16.7336" y="0.665405" width="0.622305" height="0.622305" fill="white"/>
<rect x="17.356" y="0.665405" width="0.622305" height="0.622305" fill="white"/>
<rect x="6.15454" y="1.28772" width="0.622305" height="0.622305" fill="white"/>
<rect x="6.77686" y="1.28772" width="0.622305" height="0.622305" fill="white"/>
<rect x="7.39917" y="1.28772" width="0.622305" height="0.622305" fill="white"/>
<rect x="8.02148" y="1.28772" width="0.622305" height="0.622305" fill="white"/>
<rect x="8.6438" y="1.28772" width="0.622305" height="0.622305" fill="white"/>
<rect x="9.26611" y="1.28772" width="0.622305" height="0.622305" fill="white"/>
<rect x="16.1113" y="1.28772" width="0.622305" height="0.622305" fill="white"/>
<rect x="16.7336" y="1.28772" width="0.622305" height="0.622305" fill="white"/>
<rect x="17.356" y="1.28772" width="0.622305" height="0.622305" fill="white"/>
<rect x="17.9783" y="1.28772" width="0.622305" height="0.622305" fill="white"/>
<rect x="18.6006" y="1.28772" width="0.622305" height="0.622305" fill="white"/>
<rect x="19.2229" y="1.28772" width="0.622305" height="0.622305" fill="white"/>
<rect x="4.90991" y="1.91003" width="0.622305" height="0.622305" fill="white"/>
<rect x="5.53223" y="1.91003" width="0.622305" height="0.622305" fill="white"/>
<rect x="6.15454" y="1.91003" width="0.622305" height="0.622305" fill="white"/>
<rect x="6.77686" y="1.91003" width="0.622305" height="0.622305" fill="white"/>
<rect x="7.39917" y="1.91003" width="0.622305" height="0.622305" fill="white"/>
<rect x="8.02148" y="1.91003" width="0.622305" height="0.622305" fill="white"/>
<rect x="8.6438" y="1.91003" width="0.622305" height="0.622305" fill="white"/>
<rect x="9.26611" y="1.91003" width="0.622305" height="0.622305" fill="white"/>
<rect x="9.88843" y="1.91003" width="0.622305" height="0.622305" fill="white"/>
<rect x="10.5107" y="1.91003" width="0.622305" height="0.622305" fill="white"/>
<rect x="11.1331" y="1.91003" width="0.622305" height="0.622305" fill="white"/>
<rect x="11.7554" y="1.91003" width="0.622305" height="0.622305" fill="white"/>
<rect x="12.3777" y="1.91003" width="0.622305" height="0.622305" fill="white"/>
<rect x="13" y="1.91003" width="0.622305" height="0.622305" fill="white"/>
<rect x="13.6223" y="1.91003" width="0.622305" height="0.622305" fill="white"/>
<rect x="14.2446" y="1.91003" width="0.622305" height="0.622305" fill="white"/>
<rect x="14.8669" y="1.91003" width="0.622305" height="0.622305" fill="white"/>
<rect x="15.489" y="1.91003" width="0.622305" height="0.622305" fill="white"/>
<rect x="16.1113" y="1.91003" width="0.622305" height="0.622305" fill="white"/>
<rect x="16.7336" y="1.91003" width="0.622305" height="0.622305" fill="white"/>
<rect x="17.356" y="1.91003" width="0.622305" height="0.622305" fill="white"/>
<rect x="17.9783" y="1.91003" width="0.622305" height="0.622305" fill="white"/>
<rect x="18.6006" y="1.91003" width="0.622305" height="0.622305" fill="white"/>
<rect x="19.2229" y="1.91003" width="0.622305" height="0.622305" fill="white"/>
<rect x="19.8452" y="1.91003" width="0.622305" height="0.622305" fill="white"/>
<rect x="20.4675" y="1.91003" width="0.622305" height="0.622305" fill="white"/>
<rect x="21.0898" y="1.91003" width="0.622305" height="0.622305" fill="white"/>
<rect x="4.2876" y="2.53235" width="0.622305" height="0.622305" fill="white"/>
<rect x="4.90991" y="2.53235" width="0.622305" height="0.622305" fill="white"/>
<rect x="5.53223" y="2.53235" width="0.622305" height="0.622305" fill="white"/>
<rect x="6.15454" y="2.53235" width="0.622305" height="0.622305" fill="white"/>
<rect x="6.77686" y="2.53235" width="0.622305" height="0.622305" fill="white"/>
<rect x="7.39917" y="2.53235" width="0.622305" height="0.622305" fill="white"/>
<rect x="8.02148" y="2.53235" width="0.622305" height="0.622305" fill="white"/>
<rect x="8.6438" y="2.53235" width="0.622305" height="0.622305" fill="white"/>
<rect x="9.26611" y="2.53235" width="0.622305" height="0.622305" fill="white"/>
<rect x="9.88843" y="2.53235" width="0.622305" height="0.622305" fill="white"/>
<rect x="10.5107" y="2.53235" width="0.622305" height="0.622305" fill="white"/>
<rect x="11.1331" y="2.53235" width="0.622305" height="0.622305" fill="white"/>
<rect x="11.7554" y="2.53235" width="0.622305" height="0.622305" fill="white"/>
<rect x="12.3777" y="2.53235" width="0.622305" height="0.622305" fill="white"/>
<rect x="13" y="2.53235" width="0.622305" height="0.622305" fill="white"/>
<rect x="13.6223" y="2.53235" width="0.622305" height="0.622305" fill="white"/>
<rect x="14.2446" y="2.53235" width="0.622305" height="0.622305" fill="white"/>
<rect x="14.8669" y="2.53235" width="0.622305" height="0.622305" fill="white"/>
<rect x="15.489" y="2.53235" width="0.622305" height="0.622305" fill="white"/>
<rect x="16.1113" y="2.53235" width="0.622305" height="0.622305" fill="white"/>
<rect x="16.7336" y="2.53235" width="0.622305" height="0.622305" fill="white"/>
<rect x="17.356" y="2.53235" width="0.622305" height="0.622305" fill="white"/>
<rect x="17.9783" y="2.53235" width="0.622305" height="0.622305" fill="white"/>
<rect x="18.6006" y="2.53235" width="0.622305" height="0.622305" fill="white"/>
<rect x="19.2229" y="2.53235" width="0.622305" height="0.622305" fill="white"/>
<rect x="19.8452" y="2.53235" width="0.622305" height="0.622305" fill="white"/>
<rect x="20.4675" y="2.53235" width="0.622305" height="0.622305" fill="white"/>
<rect x="21.0898" y="2.53235" width="0.622305" height="0.622305" fill="white"/>
<rect x="3.66528" y="3.15466" width="0.622305" height="0.622305" fill="white"/>
<rect x="4.2876" y="3.15466" width="0.622305" height="0.622305" fill="white"/>
<rect x="4.90991" y="3.15466" width="0.622305" height="0.622305" fill="white"/>
<rect x="5.53223" y="3.15466" width="0.622305" height="0.622305" fill="white"/>
<rect x="6.15454" y="3.15466" width="0.622305" height="0.622305" fill="white"/>
<rect x="6.77686" y="3.15466" width="0.622305" height="0.622305" fill="white"/>
<rect x="7.39917" y="3.15466" width="0.622305" height="0.622305" fill="white"/>
<rect x="8.02148" y="3.15466" width="0.622305" height="0.622305" fill="white"/>
<rect x="8.6438" y="3.15466" width="0.622305" height="0.622305" fill="white"/>
<rect x="9.26611" y="3.15466" width="0.622305" height="0.622305" fill="white"/>
<rect x="9.88843" y="3.15466" width="0.622305" height="0.622305" fill="white"/>
<rect x="10.5107" y="3.15466" width="0.622305" height="0.622305" fill="white"/>
<rect x="11.1331" y="3.15466" width="0.622305" height="0.622305" fill="white"/>
<rect x="11.7554" y="3.15466" width="0.622305" height="0.622305" fill="white"/>
<rect x="12.3777" y="3.15466" width="0.622305" height="0.622305" fill="white"/>
<rect x="13" y="3.15466" width="0.622305" height="0.622305" fill="white"/>
<rect x="13.6223" y="3.15466" width="0.622305" height="0.622305" fill="white"/>
<rect x="14.2446" y="3.15466" width="0.622305" height="0.622305" fill="white"/>
<rect x="14.8669" y="3.15466" width="0.622305" height="0.622305" fill="white"/>
<rect x="15.489" y="3.15466" width="0.622305" height="0.622305" fill="white"/>
<rect x="16.1113" y="3.15466" width="0.622305" height="0.622305" fill="white"/>
<rect x="16.7336" y="3.15466" width="0.622305" height="0.622305" fill="white"/>
<rect x="17.356" y="3.15466" width="0.622305" height="0.622305" fill="white"/>
<rect x="17.9783" y="3.15466" width="0.622305" height="0.622305" fill="white"/>
<rect x="18.6006" y="3.15466" width="0.622305" height="0.622305" fill="white"/>
<rect x="19.2229" y="3.15466" width="0.622305" height="0.622305" fill="white"/>
<rect x="19.8452" y="3.15466" width="0.622305" height="0.622305" fill="white"/>
<rect x="20.4675" y="3.15466" width="0.622305" height="0.622305" fill="white"/>
<rect x="21.0898" y="3.15466" width="0.622305" height="0.622305" fill="white"/>
<rect x="21.7122" y="3.15466" width="0.622305" height="0.622305" fill="white"/>
<rect x="3.66528" y="3.77692" width="0.622305" height="0.622305" fill="white"/>
<rect x="4.2876" y="3.77692" width="0.622305" height="0.622305" fill="white"/>
<rect x="4.90991" y="3.77692" width="0.622305" height="0.622305" fill="white"/>
<rect x="5.53223" y="3.77692" width="0.622305" height="0.622305" fill="white"/>
<rect x="6.15454" y="3.77692" width="0.622305" height="0.622305" fill="white"/>
<rect x="6.77686" y="3.77692" width="0.622305" height="0.622305" fill="white"/>
<rect x="7.39917" y="3.77692" width="0.622305" height="0.622305" fill="white"/>
<rect x="8.02148" y="3.77692" width="0.622305" height="0.622305" fill="white"/>
<rect x="8.6438" y="3.77692" width="0.622305" height="0.622305" fill="white"/>
<rect x="9.26611" y="3.77692" width="0.622305" height="0.622305" fill="white"/>
<rect x="9.88843" y="3.77692" width="0.622305" height="0.622305" fill="white"/>
<rect x="10.5107" y="3.77692" width="0.622305" height="0.622305" fill="white"/>
<rect x="11.1331" y="3.77692" width="0.622305" height="0.622305" fill="white"/>
<rect x="11.7554" y="3.77692" width="0.622305" height="0.622305" fill="white"/>
<rect x="12.3777" y="3.77692" width="0.622305" height="0.622305" fill="white"/>
<rect x="13" y="3.77692" width="0.622305" height="0.622305" fill="white"/>
<rect x="13.6223" y="3.77692" width="0.622305" height="0.622305" fill="white"/>
<rect x="14.2446" y="3.77692" width="0.622305" height="0.622305" fill="white"/>
<rect x="14.8669" y="3.77692" width="0.622305" height="0.622305" fill="white"/>
<rect x="15.489" y="3.77692" width="0.622305" height="0.622305" fill="white"/>
<rect x="16.1113" y="3.77692" width="0.622305" height="0.622305" fill="white"/>
<rect x="16.7336" y="3.77692" width="0.622305" height="0.622305" fill="white"/>
<rect x="17.356" y="3.77692" width="0.622305" height="0.622305" fill="white"/>
<rect x="17.9783" y="3.77692" width="0.622305" height="0.622305" fill="white"/>
<rect x="18.6006" y="3.77692" width="0.622305" height="0.622305" fill="white"/>
<rect x="19.2229" y="3.77692" width="0.622305" height="0.622305" fill="white"/>
<rect x="19.8452" y="3.77692" width="0.622305" height="0.622305" fill="white"/>
<rect x="20.4675" y="3.77692" width="0.622305" height="0.622305" fill="white"/>
<rect x="21.0898" y="3.77692" width="0.622305" height="0.622305" fill="white"/>
<rect x="21.7122" y="3.77692" width="0.622305" height="0.622305" fill="white"/>
<rect x="22.3345" y="3.77692" width="0.622305" height="0.622305" fill="white"/>
<rect x="3.04297" y="4.39923" width="0.622305" height="0.622305" fill="white"/>
<rect x="3.66528" y="4.39923" width="0.622305" height="0.622305" fill="white"/>
<rect x="4.2876" y="4.39923" width="0.622305" height="0.622305" fill="white"/>
<rect x="4.90991" y="4.39923" width="0.622305" height="0.622305" fill="white"/>
<rect x="5.53223" y="4.39923" width="0.622305" height="0.622305" fill="white"/>
<rect x="6.15454" y="4.39923" width="0.622305" height="0.622305" fill="white"/>
<rect x="6.77686" y="4.39923" width="0.622305" height="0.622305" fill="white"/>
<rect x="7.39917" y="4.39923" width="0.622305" height="0.622305" fill="white"/>
<rect x="8.02148" y="4.39923" width="0.622305" height="0.622305" fill="white"/>
<rect x="8.6438" y="4.39923" width="0.622305" height="0.622305" fill="white"/>
<rect x="9.26611" y="4.39923" width="0.622305" height="0.622305" fill="white"/>
<rect x="9.88843" y="4.39923" width="0.622305" height="0.622305" fill="white"/>
<rect x="10.5107" y="4.39923" width="0.622305" height="0.622305" fill="white"/>
<rect x="11.1331" y="4.39923" width="0.622305" height="0.622305" fill="white"/>
<rect x="11.7554" y="4.39923" width="0.622305" height="0.622305" fill="white"/>
<rect x="12.3777" y="4.39923" width="0.622305" height="0.622305" fill="white"/>
<rect x="13" y="4.39923" width="0.622305" height="0.622305" fill="white"/>
<rect x="13.6223" y="4.39923" width="0.622305" height="0.622305" fill="white"/>
<rect x="14.2446" y="4.39923" width="0.622305" height="0.622305" fill="white"/>
<rect x="14.8669" y="4.39923" width="0.622305" height="0.622305" fill="white"/>
<rect x="15.489" y="4.39923" width="0.622305" height="0.622305" fill="white"/>
<rect x="16.1113" y="4.39923" width="0.622305" height="0.622305" fill="white"/>
<rect x="16.7336" y="4.39923" width="0.622305" height="0.622305" fill="white"/>
<rect x="17.356" y="4.39923" width="0.622305" height="0.622305" fill="white"/>
<rect x="17.9783" y="4.39923" width="0.622305" height="0.622305" fill="white"/>
<rect x="18.6006" y="4.39923" width="0.622305" height="0.622305" fill="white"/>
<rect x="19.2229" y="4.39923" width="0.622305" height="0.622305" fill="white"/>
<rect x="19.8452" y="4.39923" width="0.622305" height="0.622305" fill="white"/>
<rect x="20.4675" y="4.39923" width="0.622305" height="0.622305" fill="white"/>
<rect x="21.0898" y="4.39923" width="0.622305" height="0.622305" fill="white"/>
<rect x="21.7122" y="4.39923" width="0.622305" height="0.622305" fill="white"/>
<rect x="22.3345" y="4.39923" width="0.622305" height="0.622305" fill="white"/>
<rect x="3.04297" y="5.02155" width="0.622305" height="0.622305" fill="white"/>
<rect x="3.66528" y="5.02155" width="0.622305" height="0.622305" fill="white"/>
<rect x="4.2876" y="5.02155" width="0.622305" height="0.622305" fill="white"/>
<rect x="4.90991" y="5.02155" width="0.622305" height="0.622305" fill="white"/>
<rect x="5.53223" y="5.02155" width="0.622305" height="0.622305" fill="white"/>
<rect x="6.15454" y="5.02155" width="0.622305" height="0.622305" fill="white"/>
<rect x="6.77686" y="5.02155" width="0.622305" height="0.622305" fill="white"/>
<rect x="7.39917" y="5.02155" width="0.622305" height="0.622305" fill="white"/>
<rect x="8.02148" y="5.02155" width="0.622305" height="0.622305" fill="white"/>
<rect x="8.6438" y="5.02155" width="0.622305" height="0.622305" fill="white"/>
<rect x="9.26611" y="5.02155" width="0.622305" height="0.622305" fill="white"/>
<rect x="9.88843" y="5.02155" width="0.622305" height="0.622305" fill="white"/>
<rect x="10.5107" y="5.02155" width="0.622305" height="0.622305" fill="white"/>
<rect x="11.1331" y="5.02155" width="0.622305" height="0.622305" fill="white"/>
<rect x="11.7554" y="5.02155" width="0.622305" height="0.622305" fill="white"/>
<rect x="12.3777" y="5.02155" width="0.622305" height="0.622305" fill="white"/>
<rect x="13" y="5.02155" width="0.622305" height="0.622305" fill="white"/>
<rect x="13.6223" y="5.02155" width="0.622305" height="0.622305" fill="white"/>
<rect x="14.2446" y="5.02155" width="0.622305" height="0.622305" fill="white"/>
<rect x="14.8669" y="5.02155" width="0.622305" height="0.622305" fill="white"/>
<rect x="15.489" y="5.02155" width="0.622305" height="0.622305" fill="white"/>
<rect x="16.1113" y="5.02155" width="0.622305" height="0.622305" fill="white"/>
<rect x="16.7336" y="5.02155" width="0.622305" height="0.622305" fill="white"/>
<rect x="17.356" y="5.02155" width="0.622305" height="0.622305" fill="white"/>
<rect x="17.9783" y="5.02155" width="0.622305" height="0.622305" fill="white"/>
<rect x="18.6006" y="5.02155" width="0.622305" height="0.622305" fill="white"/>
<rect x="19.2229" y="5.02155" width="0.622305" height="0.622305" fill="white"/>
<rect x="19.8452" y="5.02155" width="0.622305" height="0.622305" fill="white"/>
<rect x="20.4675" y="5.02155" width="0.622305" height="0.622305" fill="white"/>
<rect x="21.0898" y="5.02155" width="0.622305" height="0.622305" fill="white"/>
<rect x="21.7122" y="5.02155" width="0.622305" height="0.622305" fill="white"/>
<rect x="22.3345" y="5.02155" width="0.622305" height="0.622305" fill="white"/>
<rect x="22.9568" y="5.02155" width="0.622305" height="0.622305" fill="white"/>
<rect x="2.42065" y="5.64386" width="0.622305" height="0.622305" fill="white"/>
<rect x="3.04297" y="5.64386" width="0.622305" height="0.622305" fill="white"/>
<rect x="3.66528" y="5.64386" width="0.622305" height="0.622305" fill="white"/>
<rect x="4.2876" y="5.64386" width="0.622305" height="0.622305" fill="white"/>
<rect x="4.90991" y="5.64386" width="0.622305" height="0.622305" fill="white"/>
<rect x="5.53223" y="5.64386" width="0.622305" height="0.622305" fill="white"/>
<rect x="6.15454" y="5.64386" width="0.622305" height="0.622305" fill="white"/>
<rect x="6.77686" y="5.64386" width="0.622305" height="0.622305" fill="white"/>
<rect x="7.39917" y="5.64386" width="0.622305" height="0.622305" fill="white"/>
<rect x="8.02148" y="5.64386" width="0.622305" height="0.622305" fill="white"/>
<rect x="8.6438" y="5.64386" width="0.622305" height="0.622305" fill="white"/>
<rect x="9.26611" y="5.64386" width="0.622305" height="0.622305" fill="white"/>
<rect x="9.88843" y="5.64386" width="0.622305" height="0.622305" fill="white"/>
<rect x="10.5107" y="5.64386" width="0.622305" height="0.622305" fill="white"/>
<rect x="11.1331" y="5.64386" width="0.622305" height="0.622305" fill="white"/>
<rect x="11.7554" y="5.64386" width="0.622305" height="0.622305" fill="white"/>
<rect x="12.3777" y="5.64386" width="0.622305" height="0.622305" fill="white"/>
<rect x="13" y="5.64386" width="0.622305" height="0.622305" fill="white"/>
<rect x="13.6223" y="5.64386" width="0.622305" height="0.622305" fill="white"/>
<rect x="14.2446" y="5.64386" width="0.622305" height="0.622305" fill="white"/>
<rect x="14.8669" y="5.64386" width="0.622305" height="0.622305" fill="white"/>
<rect x="15.489" y="5.64386" width="0.622305" height="0.622305" fill="white"/>
<rect x="16.1113" y="5.64386" width="0.622305" height="0.622305" fill="white"/>
<rect x="16.7336" y="5.64386" width="0.622305" height="0.622305" fill="white"/>
<rect x="17.356" y="5.64386" width="0.622305" height="0.622305" fill="white"/>
<rect x="17.9783" y="5.64386" width="0.622305" height="0.622305" fill="white"/>
<rect x="18.6006" y="5.64386" width="0.622305" height="0.622305" fill="white"/>
<rect x="19.2229" y="5.64386" width="0.622305" height="0.622305" fill="white"/>
<rect x="19.8452" y="5.64386" width="0.622305" height="0.622305" fill="white"/>
<rect x="20.4675" y="5.64386" width="0.622305" height="0.622305" fill="white"/>
<rect x="21.0898" y="5.64386" width="0.622305" height="0.622305" fill="white"/>
<rect x="21.7122" y="5.64386" width="0.622305" height="0.622305" fill="white"/>
<rect x="22.3345" y="5.64386" width="0.622305" height="0.622305" fill="white"/>
<rect x="22.9568" y="5.64386" width="0.622305" height="0.622305" fill="white"/>
<rect x="2.42065" y="6.26617" width="0.622305" height="0.622305" fill="white"/>
<rect x="3.04297" y="6.26617" width="0.622305" height="0.622305" fill="white"/>
<rect x="3.66528" y="6.26617" width="0.622305" height="0.622305" fill="white"/>
<rect x="4.2876" y="6.26617" width="0.622305" height="0.622305" fill="white"/>
<rect x="4.90991" y="6.26617" width="0.622305" height="0.622305" fill="white"/>
<rect x="5.53223" y="6.26617" width="0.622305" height="0.622305" fill="white"/>
<rect x="6.15454" y="6.26617" width="0.622305" height="0.622305" fill="white"/>
<rect x="6.77686" y="6.26617" width="0.622305" height="0.622305" fill="white"/>
<rect x="7.39917" y="6.26617" width="0.622305" height="0.622305" fill="white"/>
<rect x="8.02148" y="6.26617" width="0.622305" height="0.622305" fill="white"/>
<rect x="8.6438" y="6.26617" width="0.622305" height="0.622305" fill="white"/>
<rect x="9.26611" y="6.26617" width="0.622305" height="0.622305" fill="white"/>
<rect x="9.88843" y="6.26617" width="0.622305" height="0.622305" fill="white"/>
<rect x="10.5107" y="6.26617" width="0.622305" height="0.622305" fill="white"/>
<rect x="11.1331" y="6.26617" width="0.622305" height="0.622305" fill="white"/>
<rect x="11.7554" y="6.26617" width="0.622305" height="0.622305" fill="white"/>
<rect x="12.3777" y="6.26617" width="0.622305" height="0.622305" fill="white"/>
<rect x="13" y="6.26617" width="0.622305" height="0.622305" fill="white"/>
<rect x="13.6223" y="6.26617" width="0.622305" height="0.622305" fill="white"/>
<rect x="14.2446" y="6.26617" width="0.622305" height="0.622305" fill="white"/>
<rect x="14.8669" y="6.26617" width="0.622305" height="0.622305" fill="white"/>
<rect x="15.489" y="6.26617" width="0.622305" height="0.622305" fill="white"/>
<rect x="16.1113" y="6.26617" width="0.622305" height="0.622305" fill="white"/>
<rect x="16.7336" y="6.26617" width="0.622305" height="0.622305" fill="white"/>
<rect x="17.356" y="6.26617" width="0.622305" height="0.622305" fill="white"/>
<rect x="17.9783" y="6.26617" width="0.622305" height="0.622305" fill="white"/>
<rect x="18.6006" y="6.26617" width="0.622305" height="0.622305" fill="white"/>
<rect x="19.2229" y="6.26617" width="0.622305" height="0.622305" fill="white"/>
<rect x="19.8452" y="6.26617" width="0.622305" height="0.622305" fill="white"/>
<rect x="20.4675" y="6.26617" width="0.622305" height="0.622305" fill="white"/>
<rect x="21.0898" y="6.26617" width="0.622305" height="0.622305" fill="white"/>
<rect x="21.7122" y="6.26617" width="0.622305" height="0.622305" fill="white"/>
<rect x="22.3345" y="6.26617" width="0.622305" height="0.622305" fill="white"/>
<rect x="22.9568" y="6.26617" width="0.622305" height="0.622305" fill="white"/>
<rect x="23.5791" y="6.26617" width="0.622305" height="0.622305" fill="white"/>
<rect x="1.79834" y="6.88849" width="0.622305" height="0.622305" fill="white"/>
<rect x="2.42065" y="6.88849" width="0.622305" height="0.622305" fill="white"/>
<rect x="3.04297" y="6.88849" width="0.622305" height="0.622305" fill="white"/>
<rect x="3.66528" y="6.88849" width="0.622305" height="0.622305" fill="white"/>
<rect x="4.2876" y="6.88849" width="0.622305" height="0.622305" fill="white"/>
<rect x="4.90991" y="6.88849" width="0.622305" height="0.622305" fill="white"/>
<rect x="5.53223" y="6.88849" width="0.622305" height="0.622305" fill="white"/>
<rect x="6.15454" y="6.88849" width="0.622305" height="0.622305" fill="white"/>
<rect x="6.77686" y="6.88849" width="0.622305" height="0.622305" fill="white"/>
<rect x="7.39917" y="6.88849" width="0.622305" height="0.622305" fill="white"/>
<rect x="8.02148" y="6.88849" width="0.622305" height="0.622305" fill="white"/>
<rect x="8.6438" y="6.88849" width="0.622305" height="0.622305" fill="white"/>
<rect x="9.26611" y="6.88849" width="0.622305" height="0.622305" fill="white"/>
<rect x="9.88843" y="6.88849" width="0.622305" height="0.622305" fill="white"/>
<rect x="10.5107" y="6.88849" width="0.622305" height="0.622305" fill="white"/>
<rect x="11.1331" y="6.88849" width="0.622305" height="0.622305" fill="white"/>
<rect x="11.7554" y="6.88849" width="0.622305" height="0.622305" fill="white"/>
<rect x="12.3777" y="6.88849" width="0.622305" height="0.622305" fill="white"/>
<rect x="13" y="6.88849" width="0.622305" height="0.622305" fill="white"/>
<rect x="13.6223" y="6.88849" width="0.622305" height="0.622305" fill="white"/>
<rect x="14.2446" y="6.88849" width="0.622305" height="0.622305" fill="white"/>
<rect x="14.8669" y="6.88849" width="0.622305" height="0.622305" fill="white"/>
<rect x="15.489" y="6.88849" width="0.622305" height="0.622305" fill="white"/>
<rect x="16.1113" y="6.88849" width="0.622305" height="0.622305" fill="white"/>
<rect x="16.7336" y="6.88849" width="0.622305" height="0.622305" fill="white"/>
<rect x="17.356" y="6.88849" width="0.622305" height="0.622305" fill="white"/>
<rect x="17.9783" y="6.88849" width="0.622305" height="0.622305" fill="white"/>
<rect x="18.6006" y="6.88849" width="0.622305" height="0.622305" fill="white"/>
<rect x="19.2229" y="6.88849" width="0.622305" height="0.622305" fill="white"/>
<rect x="19.8452" y="6.88849" width="0.622305" height="0.622305" fill="white"/>
<rect x="20.4675" y="6.88849" width="0.622305" height="0.622305" fill="white"/>
<rect x="21.0898" y="6.88849" width="0.622305" height="0.622305" fill="white"/>
<rect x="21.7122" y="6.88849" width="0.622305" height="0.622305" fill="white"/>
<rect x="22.3345" y="6.88849" width="0.622305" height="0.622305" fill="white"/>
<rect x="22.9568" y="6.88849" width="0.622305" height="0.622305" fill="white"/>
<rect x="23.5791" y="6.88849" width="0.622305" height="0.622305" fill="white"/>
<rect x="1.79834" y="7.5108" width="0.622305" height="0.622305" fill="white"/>
<rect x="2.42065" y="7.5108" width="0.622305" height="0.622305" fill="white"/>
<rect x="3.04297" y="7.5108" width="0.622305" height="0.622305" fill="white"/>
<rect x="3.66528" y="7.5108" width="0.622305" height="0.622305" fill="white"/>
<rect x="4.2876" y="7.5108" width="0.622305" height="0.622305" fill="white"/>
<rect x="4.90991" y="7.5108" width="0.622305" height="0.622305" fill="white"/>
<rect x="5.53223" y="7.5108" width="0.622305" height="0.622305" fill="white"/>
<rect x="6.15454" y="7.5108" width="0.622305" height="0.622305" fill="white"/>
<rect x="6.77686" y="7.5108" width="0.622305" height="0.622305" fill="white"/>
<rect x="7.39917" y="7.5108" width="0.622305" height="0.622305" fill="white"/>
<rect x="8.02148" y="7.5108" width="0.622305" height="0.622305" fill="white"/>
<rect x="8.6438" y="7.5108" width="0.622305" height="0.622305" fill="white"/>
<rect x="9.26611" y="7.5108" width="0.622305" height="0.622305" fill="white"/>
<rect x="9.88843" y="7.5108" width="0.622305" height="0.622305" fill="white"/>
<rect x="10.5107" y="7.5108" width="0.622305" height="0.622305" fill="white"/>
<rect x="11.1331" y="7.5108" width="0.622305" height="0.622305" fill="white"/>
<rect x="11.7554" y="7.5108" width="0.622305" height="0.622305" fill="white"/>
<rect x="12.3777" y="7.5108" width="0.622305" height="0.622305" fill="white"/>
<rect x="13" y="7.5108" width="0.622305" height="0.622305" fill="white"/>
<rect x="13.6223" y="7.5108" width="0.622305" height="0.622305" fill="white"/>
<rect x="14.2446" y="7.5108" width="0.622305" height="0.622305" fill="white"/>
<rect x="14.8669" y="7.5108" width="0.622305" height="0.622305" fill="white"/>
<rect x="15.489" y="7.5108" width="0.622305" height="0.622305" fill="white"/>
<rect x="16.1113" y="7.5108" width="0.622305" height="0.622305" fill="white"/>
<rect x="16.7336" y="7.5108" width="0.622305" height="0.622305" fill="white"/>
<rect x="17.356" y="7.5108" width="0.622305" height="0.622305" fill="white"/>
<rect x="17.9783" y="7.5108" width="0.622305" height="0.622305" fill="white"/>
<rect x="18.6006" y="7.5108" width="0.622305" height="0.622305" fill="white"/>
<rect x="19.2229" y="7.5108" width="0.622305" height="0.622305" fill="white"/>
<rect x="19.8452" y="7.5108" width="0.622305" height="0.622305" fill="white"/>
<rect x="20.4675" y="7.5108" width="0.622305" height="0.622305" fill="white"/>
<rect x="21.0898" y="7.5108" width="0.622305" height="0.622305" fill="white"/>
<rect x="21.7122" y="7.5108" width="0.622305" height="0.622305" fill="white"/>
<rect x="22.3345" y="7.5108" width="0.622305" height="0.622305" fill="white"/>
<rect x="22.9568" y="7.5108" width="0.622305" height="0.622305" fill="white"/>
<rect x="23.5791" y="7.5108" width="0.622305" height="0.622305" fill="white"/>
<rect x="1.79834" y="8.13306" width="0.622305" height="0.622305" fill="white"/>
<rect x="2.42065" y="8.13306" width="0.622305" height="0.622305" fill="white"/>
<rect x="3.04297" y="8.13306" width="0.622305" height="0.622305" fill="white"/>
<rect x="3.66528" y="8.13306" width="0.622305" height="0.622305" fill="white"/>
<rect x="4.2876" y="8.13306" width="0.622305" height="0.622305" fill="white"/>
<rect x="4.90991" y="8.13306" width="0.622305" height="0.622305" fill="white"/>
<rect x="5.53223" y="8.13306" width="0.622305" height="0.622305" fill="white"/>
<rect x="6.15454" y="8.13306" width="0.622305" height="0.622305" fill="white"/>
<rect x="6.77686" y="8.13306" width="0.622305" height="0.622305" fill="white"/>
<rect x="7.39917" y="8.13306" width="0.622305" height="0.622305" fill="white"/>
<rect x="8.02148" y="8.13306" width="0.622305" height="0.622305" fill="white"/>
<rect x="8.6438" y="8.13306" width="0.622305" height="0.622305" fill="white"/>
<rect x="9.26611" y="8.13306" width="0.622305" height="0.622305" fill="white"/>
<rect x="9.88843" y="8.13306" width="0.622305" height="0.622305" fill="white"/>
<rect x="10.5107" y="8.13306" width="0.622305" height="0.622305" fill="white"/>
<rect x="11.1331" y="8.13306" width="0.622305" height="0.622305" fill="white"/>
<rect x="11.7554" y="8.13306" width="0.622305" height="0.622305" fill="white"/>
<rect x="12.3777" y="8.13306" width="0.622305" height="0.622305" fill="white"/>
<rect x="13" y="8.13306" width="0.622305" height="0.622305" fill="white"/>
<rect x="13.6223" y="8.13306" width="0.622305" height="0.622305" fill="white"/>
<rect x="14.2446" y="8.13306" width="0.622305" height="0.622305" fill="white"/>
<rect x="14.8669" y="8.13306" width="0.622305" height="0.622305" fill="white"/>
<rect x="15.489" y="8.13306" width="0.622305" height="0.622305" fill="white"/>
<rect x="16.1113" y="8.13306" width="0.622305" height="0.622305" fill="white"/>
<rect x="16.7336" y="8.13306" width="0.622305" height="0.622305" fill="white"/>
<rect x="17.356" y="8.13306" width="0.622305" height="0.622305" fill="white"/>
<rect x="17.9783" y="8.13306" width="0.622305" height="0.622305" fill="white"/>
<rect x="18.6006" y="8.13306" width="0.622305" height="0.622305" fill="white"/>
<rect x="19.2229" y="8.13306" width="0.622305" height="0.622305" fill="white"/>
<rect x="19.8452" y="8.13306" width="0.622305" height="0.622305" fill="white"/>
<rect x="20.4675" y="8.13306" width="0.622305" height="0.622305" fill="white"/>
<rect x="21.0898" y="8.13306" width="0.622305" height="0.622305" fill="white"/>
<rect x="21.7122" y="8.13306" width="0.622305" height="0.622305" fill="white"/>
<rect x="22.3345" y="8.13306" width="0.622305" height="0.622305" fill="white"/>
<rect x="22.9568" y="8.13306" width="0.622305" height="0.622305" fill="white"/>
<rect x="23.5791" y="8.13306" width="0.622305" height="0.622305" fill="white"/>
<rect x="24.2014" y="8.13306" width="0.622305" height="0.622305" fill="white"/>
<rect x="1.17603" y="8.75537" width="0.622305" height="0.622305" fill="white"/>
<rect x="1.79834" y="8.75537" width="0.622305" height="0.622305" fill="white"/>
<rect x="2.42065" y="8.75537" width="0.622305" height="0.622305" fill="white"/>
<rect x="3.04297" y="8.75537" width="0.622305" height="0.622305" fill="white"/>
<rect x="3.66528" y="8.75537" width="0.622305" height="0.622305" fill="white"/>
<rect x="4.2876" y="8.75537" width="0.622305" height="0.622305" fill="white"/>
<rect x="4.90991" y="8.75537" width="0.622305" height="0.622305" fill="white"/>
<rect x="5.53223" y="8.75537" width="0.622305" height="0.622305" fill="white"/>
<rect x="6.15454" y="8.75537" width="0.622305" height="0.622305" fill="white"/>
<rect x="6.77686" y="8.75537" width="0.622305" height="0.622305" fill="white"/>
<rect x="7.39917" y="8.75537" width="0.622305" height="0.622305" fill="white"/>
<rect x="10.5107" y="8.75537" width="0.622305" height="0.622305" fill="white"/>
<rect x="11.1331" y="8.75537" width="0.622305" height="0.622305" fill="white"/>
<rect x="11.7554" y="8.75537" width="0.622305" height="0.622305" fill="white"/>
<rect x="12.3777" y="8.75537" width="0.622305" height="0.622305" fill="white"/>
<rect x="13" y="8.75537" width="0.622305" height="0.622305" fill="white"/>
<rect x="13.6223" y="8.75537" width="0.622305" height="0.622305" fill="white"/>
<rect x="14.2446" y="8.75537" width="0.622305" height="0.622305" fill="white"/>
<rect x="14.8669" y="8.75537" width="0.622305" height="0.622305" fill="white"/>
<rect x="15.489" y="8.75537" width="0.622305" height="0.622305" fill="white"/>
<rect x="18.6006" y="8.75537" width="0.622305" height="0.622305" fill="white"/>
<rect x="19.2229" y="8.75537" width="0.622305" height="0.622305" fill="white"/>
<rect x="19.8452" y="8.75537" width="0.622305" height="0.622305" fill="white"/>
<rect x="20.4675" y="8.75537" width="0.622305" height="0.622305" fill="white"/>
<rect x="21.0898" y="8.75537" width="0.622305" height="0.622305" fill="white"/>
<rect x="21.7122" y="8.75537" width="0.622305" height="0.622305" fill="white"/>
<rect x="22.3345" y="8.75537" width="0.622305" height="0.622305" fill="white"/>
<rect x="22.9568" y="8.75537" width="0.622305" height="0.622305" fill="white"/>
<rect x="23.5791" y="8.75537" width="0.622305" height="0.622305" fill="white"/>
<rect x="24.2014" y="8.75537" width="0.622305" height="0.622305" fill="white"/>
<rect x="1.17603" y="9.37769" width="0.622305" height="0.622305" fill="white"/>
<rect x="1.79834" y="9.37769" width="0.622305" height="0.622305" fill="white"/>
<rect x="2.42065" y="9.37769" width="0.622305" height="0.622305" fill="white"/>
<rect x="3.04297" y="9.37769" width="0.622305" height="0.622305" fill="white"/>
<rect x="3.66528" y="9.37769" width="0.622305" height="0.622305" fill="white"/>
<rect x="4.2876" y="9.37769" width="0.622305" height="0.622305" fill="white"/>
<rect x="4.90991" y="9.37769" width="0.622305" height="0.622305" fill="white"/>
<rect x="5.53223" y="9.37769" width="0.622305" height="0.622305" fill="white"/>
<rect x="6.15454" y="9.37769" width="0.622305" height="0.622305" fill="white"/>
<rect x="6.77686" y="9.37769" width="0.622305" height="0.622305" fill="white"/>
<rect x="11.1331" y="9.37769" width="0.622305" height="0.622305" fill="white"/>
<rect x="11.7554" y="9.37769" width="0.622305" height="0.622305" fill="white"/>
<rect x="12.3777" y="9.37769" width="0.622305" height="0.622305" fill="white"/>
<rect x="13" y="9.37769" width="0.622305" height="0.622305" fill="white"/>
<rect x="13.6223" y="9.37769" width="0.622305" height="0.622305" fill="white"/>
<rect x="14.2446" y="9.37769" width="0.622305" height="0.622305" fill="white"/>
<rect x="14.8669" y="9.37769" width="0.622305" height="0.622305" fill="white"/>
<rect x="19.2229" y="9.37769" width="0.622305" height="0.622305" fill="white"/>
<rect x="19.8452" y="9.37769" width="0.622305" height="0.622305" fill="white"/>
<rect x="20.4675" y="9.37769" width="0.622305" height="0.622305" fill="white"/>
<rect x="21.0898" y="9.37769" width="0.622305" height="0.622305" fill="white"/>
<rect x="21.7122" y="9.37769" width="0.622305" height="0.622305" fill="white"/>
<rect x="22.3345" y="9.37769" width="0.622305" height="0.622305" fill="white"/>
<rect x="22.9568" y="9.37769" width="0.622305" height="0.622305" fill="white"/>
<rect x="23.5791" y="9.37769" width="0.622305" height="0.622305" fill="white"/>
<rect x="24.2014" y="9.37769" width="0.622305" height="0.622305" fill="white"/>
<rect x="1.17603" y="10" width="0.622305" height="0.622305" fill="white"/>
<rect x="1.79834" y="10" width="0.622305" height="0.622305" fill="white"/>
<rect x="2.42065" y="10" width="0.622305" height="0.622305" fill="white"/>
<rect x="3.04297" y="10" width="0.622305" height="0.622305" fill="white"/>
<rect x="3.66528" y="10" width="0.622305" height="0.622305" fill="white"/>
<rect x="4.2876" y="10" width="0.622305" height="0.622305" fill="white"/>
<rect x="4.90991" y="10" width="0.622305" height="0.622305" fill="white"/>
<rect x="5.53223" y="10" width="0.622305" height="0.622305" fill="white"/>
<rect x="6.15454" y="10" width="0.622305" height="0.622305" fill="white"/>
<rect x="11.1331" y="10" width="0.622305" height="0.622305" fill="white"/>
<rect x="11.7554" y="10" width="0.622305" height="0.622305" fill="white"/>
<rect x="12.3777" y="10" width="0.622305" height="0.622305" fill="white"/>
<rect x="13" y="10" width="0.622305" height="0.622305" fill="white"/>
<rect x="13.6223" y="10" width="0.622305" height="0.622305" fill="white"/>
<rect x="14.2446" y="10" width="0.622305" height="0.622305" fill="white"/>
<rect x="19.2229" y="10" width="0.622305" height="0.622305" fill="white"/>
<rect x="19.8452" y="10" width="0.622305" height="0.622305" fill="white"/>
<rect x="20.4675" y="10" width="0.622305" height="0.622305" fill="white"/>
<rect x="21.0898" y="10" width="0.622305" height="0.622305" fill="white"/>
<rect x="21.7122" y="10" width="0.622305" height="0.622305" fill="white"/>
<rect x="22.3345" y="10" width="0.622305" height="0.622305" fill="white"/>
<rect x="22.9568" y="10" width="0.622305" height="0.622305" fill="white"/>
<rect x="23.5791" y="10" width="0.622305" height="0.622305" fill="white"/>
<rect x="24.2014" y="10" width="0.622305" height="0.622305" fill="white"/>
<rect x="1.17603" y="10.6223" width="0.622305" height="0.622305" fill="white"/>
<rect x="1.79834" y="10.6223" width="0.622305" height="0.622305" fill="white"/>
<rect x="2.42065" y="10.6223" width="0.622305" height="0.622305" fill="white"/>
<rect x="3.04297" y="10.6223" width="0.622305" height="0.622305" fill="white"/>
<rect x="3.66528" y="10.6223" width="0.622305" height="0.622305" fill="white"/>
<rect x="4.2876" y="10.6223" width="0.622305" height="0.622305" fill="white"/>
<rect x="4.90991" y="10.6223" width="0.622305" height="0.622305" fill="white"/>
<rect x="5.53223" y="10.6223" width="0.622305" height="0.622305" fill="white"/>
<rect x="6.15454" y="10.6223" width="0.622305" height="0.622305" fill="white"/>
<rect x="11.1331" y="10.6223" width="0.622305" height="0.622305" fill="white"/>
<rect x="11.7554" y="10.6223" width="0.622305" height="0.622305" fill="white"/>
<rect x="12.3777" y="10.6223" width="0.622305" height="0.622305" fill="white"/>
<rect x="13" y="10.6223" width="0.622305" height="0.622305" fill="white"/>
<rect x="13.6223" y="10.6223" width="0.622305" height="0.622305" fill="white"/>
<rect x="14.2446" y="10.6223" width="0.622305" height="0.622305" fill="white"/>
<rect x="19.2229" y="10.6223" width="0.622305" height="0.622305" fill="white"/>
<rect x="19.8452" y="10.6223" width="0.622305" height="0.622305" fill="white"/>
<rect x="20.4675" y="10.6223" width="0.622305" height="0.622305" fill="white"/>
<rect x="21.0898" y="10.6223" width="0.622305" height="0.622305" fill="white"/>
<rect x="21.7122" y="10.6223" width="0.622305" height="0.622305" fill="white"/>
<rect x="22.3345" y="10.6223" width="0.622305" height="0.622305" fill="white"/>
<rect x="22.9568" y="10.6223" width="0.622305" height="0.622305" fill="white"/>
<rect x="23.5791" y="10.6223" width="0.622305" height="0.622305" fill="white"/>
<rect x="24.2014" y="10.6223" width="0.622305" height="0.622305" fill="white"/>
<rect x="1.17603" y="11.2446" width="0.622305" height="0.622305" fill="white"/>
<rect x="1.79834" y="11.2446" width="0.622305" height="0.622305" fill="white"/>
<rect x="2.42065" y="11.2446" width="0.622305" height="0.622305" fill="white"/>
<rect x="3.04297" y="11.2446" width="0.622305" height="0.622305" fill="white"/>
<rect x="3.66528" y="11.2446" width="0.622305" height="0.622305" fill="white"/>
<rect x="4.2876" y="11.2446" width="0.622305" height="0.622305" fill="white"/>
<rect x="4.90991" y="11.2446" width="0.622305" height="0.622305" fill="white"/>
<rect x="5.53223" y="11.2446" width="0.622305" height="0.622305" fill="white"/>
<rect x="6.15454" y="11.2446" width="0.622305" height="0.622305" fill="white"/>
<rect x="11.1331" y="11.2446" width="0.622305" height="0.622305" fill="white"/>
<rect x="11.7554" y="11.2446" width="0.622305" height="0.622305" fill="white"/>
<rect x="12.3777" y="11.2446" width="0.622305" height="0.622305" fill="white"/>
<rect x="13" y="11.2446" width="0.622305" height="0.622305" fill="white"/>
<rect x="13.6223" y="11.2446" width="0.622305" height="0.622305" fill="white"/>
<rect x="14.2446" y="11.2446" width="0.622305" height="0.622305" fill="white"/>
<rect x="19.2229" y="11.2446" width="0.622305" height="0.622305" fill="white"/>
<rect x="19.8452" y="11.2446" width="0.622305" height="0.622305" fill="white"/>
<rect x="20.4675" y="11.2446" width="0.622305" height="0.622305" fill="white"/>
<rect x="21.0898" y="11.2446" width="0.622305" height="0.622305" fill="white"/>
<rect x="21.7122" y="11.2446" width="0.622305" height="0.622305" fill="white"/>
<rect x="22.3345" y="11.2446" width="0.622305" height="0.622305" fill="white"/>
<rect x="22.9568" y="11.2446" width="0.622305" height="0.622305" fill="white"/>
<rect x="23.5791" y="11.2446" width="0.622305" height="0.622305" fill="white"/>
<rect x="24.2014" y="11.2446" width="0.622305" height="0.622305" fill="white"/>
<rect x="24.8237" y="11.2446" width="0.622305" height="0.622305" fill="white"/>
<rect x="1.17603" y="11.8669" width="0.622305" height="0.622305" fill="white"/>
<rect x="1.79834" y="11.8669" width="0.622305" height="0.622305" fill="white"/>
<rect x="2.42065" y="11.8669" width="0.622305" height="0.622305" fill="white"/>
<rect x="3.04297" y="11.8669" width="0.622305" height="0.622305" fill="white"/>
<rect x="3.66528" y="11.8669" width="0.622305" height="0.622305" fill="white"/>
<rect x="4.2876" y="11.8669" width="0.622305" height="0.622305" fill="white"/>
<rect x="4.90991" y="11.8669" width="0.622305" height="0.622305" fill="white"/>
<rect x="5.53223" y="11.8669" width="0.622305" height="0.622305" fill="white"/>
<rect x="6.15454" y="11.8669" width="0.622305" height="0.622305" fill="white"/>
<rect x="6.77686" y="11.8669" width="0.622305" height="0.622305" fill="white"/>
<rect x="11.1331" y="11.8669" width="0.622305" height="0.622305" fill="white"/>
<rect x="11.7554" y="11.8669" width="0.622305" height="0.622305" fill="white"/>
<rect x="12.3777" y="11.8669" width="0.622305" height="0.622305" fill="white"/>
<rect x="13" y="11.8669" width="0.622305" height="0.622305" fill="white"/>
<rect x="13.6223" y="11.8669" width="0.622305" height="0.622305" fill="white"/>
<rect x="14.2446" y="11.8669" width="0.622305" height="0.622305" fill="white"/>
<rect x="14.8669" y="11.8669" width="0.622305" height="0.622305" fill="white"/>
<rect x="19.2229" y="11.8669" width="0.622305" height="0.622305" fill="white"/>
<rect x="19.8452" y="11.8669" width="0.622305" height="0.622305" fill="white"/>
<rect x="20.4675" y="11.8669" width="0.622305" height="0.622305" fill="white"/>
<rect x="21.0898" y="11.8669" width="0.622305" height="0.622305" fill="white"/>
<rect x="21.7122" y="11.8669" width="0.622305" height="0.622305" fill="white"/>
<rect x="22.3345" y="11.8669" width="0.622305" height="0.622305" fill="white"/>
<rect x="22.9568" y="11.8669" width="0.622305" height="0.622305" fill="white"/>
<rect x="23.5791" y="11.8669" width="0.622305" height="0.622305" fill="white"/>
<rect x="24.2014" y="11.8669" width="0.622305" height="0.622305" fill="white"/>
<rect x="24.8237" y="11.8669" width="0.622305" height="0.622305" fill="white"/>
<rect x="0.553711" y="12.4892" width="0.622305" height="0.622305" fill="white"/>
<rect x="1.17603" y="12.4892" width="0.622305" height="0.622305" fill="white"/>
<rect x="1.79834" y="12.4892" width="0.622305" height="0.622305" fill="white"/>
<rect x="2.42065" y="12.4892" width="0.622305" height="0.622305" fill="white"/>
<rect x="3.04297" y="12.4892" width="0.622305" height="0.622305" fill="white"/>
<rect x="3.66528" y="12.4892" width="0.622305" height="0.622305" fill="white"/>
<rect x="4.2876" y="12.4892" width="0.622305" height="0.622305" fill="white"/>
<rect x="4.90991" y="12.4892" width="0.622305" height="0.622305" fill="white"/>
<rect x="5.53223" y="12.4892" width="0.622305" height="0.622305" fill="white"/>
<rect x="6.15454" y="12.4892" width="0.622305" height="0.622305" fill="white"/>
<rect x="6.77686" y="12.4892" width="0.622305" height="0.622305" fill="white"/>
<rect x="10.5107" y="12.4892" width="0.622305" height="0.622305" fill="white"/>
<rect x="11.1331" y="12.4892" width="0.622305" height="0.622305" fill="white"/>
<rect x="11.7554" y="12.4892" width="0.622305" height="0.622305" fill="white"/>
<rect x="12.3777" y="12.4892" width="0.622305" height="0.622305" fill="white"/>
<rect x="13" y="12.4892" width="0.622305" height="0.622305" fill="white"/>
<rect x="13.6223" y="12.4892" width="0.622305" height="0.622305" fill="white"/>
<rect x="14.2446" y="12.4892" width="0.622305" height="0.622305" fill="white"/>
<rect x="14.8669" y="12.4892" width="0.622305" height="0.622305" fill="white"/>
<rect x="18.6006" y="12.4892" width="0.622305" height="0.622305" fill="white"/>
<rect x="19.2229" y="12.4892" width="0.622305" height="0.622305" fill="white"/>
<rect x="19.8452" y="12.4892" width="0.622305" height="0.622305" fill="white"/>
<rect x="20.4675" y="12.4892" width="0.622305" height="0.622305" fill="white"/>
<rect x="21.0898" y="12.4892" width="0.622305" height="0.622305" fill="white"/>
<rect x="21.7122" y="12.4892" width="0.622305" height="0.622305" fill="white"/>
<rect x="22.3345" y="12.4892" width="0.622305" height="0.622305" fill="white"/>
<rect x="22.9568" y="12.4892" width="0.622305" height="0.622305" fill="white"/>
<rect x="23.5791" y="12.4892" width="0.622305" height="0.622305" fill="white"/>
<rect x="24.2014" y="12.4892" width="0.622305" height="0.622305" fill="white"/>
<rect x="24.8237" y="12.4892" width="0.622305" height="0.622305" fill="white"/>
<rect x="0.553711" y="13.1115" width="0.622305" height="0.622305" fill="white"/>
<rect x="1.17603" y="13.1115" width="0.622305" height="0.622305" fill="white"/>
<rect x="1.79834" y="13.1115" width="0.622305" height="0.622305" fill="white"/>
<rect x="2.42065" y="13.1115" width="0.622305" height="0.622305" fill="white"/>
<rect x="3.04297" y="13.1115" width="0.622305" height="0.622305" fill="white"/>
<rect x="3.66528" y="13.1115" width="0.622305" height="0.622305" fill="white"/>
<rect x="4.2876" y="13.1115" width="0.622305" height="0.622305" fill="white"/>
<rect x="4.90991" y="13.1115" width="0.622305" height="0.622305" fill="white"/>
<rect x="5.53223" y="13.1115" width="0.622305" height="0.622305" fill="white"/>
<rect x="6.15454" y="13.1115" width="0.622305" height="0.622305" fill="white"/>
<rect x="6.77686" y="13.1115" width="0.622305" height="0.622305" fill="white"/>
<rect x="7.39917" y="13.1115" width="0.622305" height="0.622305" fill="white"/>
<rect x="8.02148" y="13.1115" width="0.622305" height="0.622305" fill="white"/>
<rect x="9.26611" y="13.1115" width="0.622305" height="0.622305" fill="white"/>
<rect x="9.88843" y="13.1115" width="0.622305" height="0.622305" fill="white"/>
<rect x="10.5107" y="13.1115" width="0.622305" height="0.622305" fill="white"/>
<rect x="11.1331" y="13.1115" width="0.622305" height="0.622305" fill="white"/>
<rect x="11.7554" y="13.1115" width="0.622305" height="0.622305" fill="white"/>
<rect x="12.3777" y="13.1115" width="0.622305" height="0.622305" fill="white"/>
<rect x="13" y="13.1115" width="0.622305" height="0.622305" fill="white"/>
<rect x="13.6223" y="13.1115" width="0.622305" height="0.622305" fill="white"/>
<rect x="14.2446" y="13.1115" width="0.622305" height="0.622305" fill="white"/>
<rect x="14.8669" y="13.1115" width="0.622305" height="0.622305" fill="white"/>
<rect x="15.489" y="13.1115" width="0.622305" height="0.622305" fill="white"/>
<rect x="16.1113" y="13.1115" width="0.622305" height="0.622305" fill="white"/>
<rect x="17.356" y="13.1115" width="0.622305" height="0.622305" fill="white"/>
<rect x="17.9783" y="13.1115" width="0.622305" height="0.622305" fill="white"/>
<rect x="18.6006" y="13.1115" width="0.622305" height="0.622305" fill="white"/>
<rect x="19.2229" y="13.1115" width="0.622305" height="0.622305" fill="white"/>
<rect x="19.8452" y="13.1115" width="0.622305" height="0.622305" fill="white"/>
<rect x="20.4675" y="13.1115" width="0.622305" height="0.622305" fill="white"/>
<rect x="21.0898" y="13.1115" width="0.622305" height="0.622305" fill="white"/>
<rect x="21.7122" y="13.1115" width="0.622305" height="0.622305" fill="white"/>
<rect x="22.3345" y="13.1115" width="0.622305" height="0.622305" fill="white"/>
<rect x="22.9568" y="13.1115" width="0.622305" height="0.622305" fill="white"/>
<rect x="23.5791" y="13.1115" width="0.622305" height="0.622305" fill="white"/>
<rect x="24.2014" y="13.1115" width="0.622305" height="0.622305" fill="white"/>
<rect x="24.8237" y="13.1115" width="0.622305" height="0.622305" fill="white"/>
<rect x="0.553711" y="13.7338" width="0.622305" height="0.622305" fill="white"/>
<rect x="1.17603" y="13.7338" width="0.622305" height="0.622305" fill="white"/>
<rect x="1.79834" y="13.7338" width="0.622305" height="0.622305" fill="white"/>
<rect x="2.42065" y="13.7338" width="0.622305" height="0.622305" fill="white"/>
<rect x="3.04297" y="13.7338" width="0.622305" height="0.622305" fill="white"/>
<rect x="3.66528" y="13.7338" width="0.622305" height="0.622305" fill="white"/>
<rect x="4.2876" y="13.7338" width="0.622305" height="0.622305" fill="white"/>
<rect x="4.90991" y="13.7338" width="0.622305" height="0.622305" fill="white"/>
<rect x="5.53223" y="13.7338" width="0.622305" height="0.622305" fill="white"/>
<rect x="6.15454" y="13.7338" width="0.622305" height="0.622305" fill="white"/>
<rect x="6.77686" y="13.7338" width="0.622305" height="0.622305" fill="white"/>
<rect x="7.39917" y="13.7338" width="0.622305" height="0.622305" fill="white"/>
<rect x="8.02148" y="13.7338" width="0.622305" height="0.622305" fill="white"/>
<rect x="8.6438" y="13.7338" width="0.622305" height="0.622305" fill="white"/>
<rect x="9.26611" y="13.7338" width="0.622305" height="0.622305" fill="white"/>
<rect x="9.88843" y="13.7338" width="0.622305" height="0.622305" fill="white"/>
<rect x="10.5107" y="13.7338" width="0.622305" height="0.622305" fill="white"/>
<rect x="11.1331" y="13.7338" width="0.622305" height="0.622305" fill="white"/>
<rect x="11.7554" y="13.7338" width="0.622305" height="0.622305" fill="white"/>
<rect x="12.3777" y="13.7338" width="0.622305" height="0.622305" fill="white"/>
<rect x="13" y="13.7338" width="0.622305" height="0.622305" fill="white"/>
<rect x="13.6223" y="13.7338" width="0.622305" height="0.622305" fill="white"/>
<rect x="14.2446" y="13.7338" width="0.622305" height="0.622305" fill="white"/>
<rect x="14.8669" y="13.7338" width="0.622305" height="0.622305" fill="white"/>
<rect x="15.489" y="13.7338" width="0.622305" height="0.622305" fill="white"/>
<rect x="16.1113" y="13.7338" width="0.622305" height="0.622305" fill="white"/>
<rect x="16.7336" y="13.7338" width="0.622305" height="0.622305" fill="white"/>
<rect x="17.356" y="13.7338" width="0.622305" height="0.622305" fill="white"/>
<rect x="17.9783" y="13.7338" width="0.622305" height="0.622305" fill="white"/>
<rect x="18.6006" y="13.7338" width="0.622305" height="0.622305" fill="white"/>
<rect x="19.2229" y="13.7338" width="0.622305" height="0.622305" fill="white"/>
<rect x="19.8452" y="13.7338" width="0.622305" height="0.622305" fill="white"/>
<rect x="20.4675" y="13.7338" width="0.622305" height="0.622305" fill="white"/>
<rect x="21.0898" y="13.7338" width="0.622305" height="0.622305" fill="white"/>
<rect x="21.7122" y="13.7338" width="0.622305" height="0.622305" fill="white"/>
<rect x="22.3345" y="13.7338" width="0.622305" height="0.622305" fill="white"/>
<rect x="22.9568" y="13.7338" width="0.622305" height="0.622305" fill="white"/>
<rect x="23.5791" y="13.7338" width="0.622305" height="0.622305" fill="white"/>
<rect x="24.2014" y="13.7338" width="0.622305" height="0.622305" fill="white"/>
<rect x="24.8237" y="13.7338" width="0.622305" height="0.622305" fill="white"/>
<rect x="0.553711" y="14.3561" width="0.622305" height="0.622305" fill="white"/>
<rect x="1.17603" y="14.3561" width="0.622305" height="0.622305" fill="white"/>
<rect x="1.79834" y="14.3561" width="0.622305" height="0.622305" fill="white"/>
<rect x="2.42065" y="14.3561" width="0.622305" height="0.622305" fill="white"/>
<rect x="3.04297" y="14.3561" width="0.622305" height="0.622305" fill="white"/>
<rect x="3.66528" y="14.3561" width="0.622305" height="0.622305" fill="white"/>
<rect x="4.2876" y="14.3561" width="0.622305" height="0.622305" fill="white"/>
<rect x="4.90991" y="14.3561" width="0.622305" height="0.622305" fill="white"/>
<rect x="5.53223" y="14.3561" width="0.622305" height="0.622305" fill="white"/>
<rect x="6.15454" y="14.3561" width="0.622305" height="0.622305" fill="white"/>
<rect x="6.77686" y="14.3561" width="0.622305" height="0.622305" fill="white"/>
<rect x="7.39917" y="14.3561" width="0.622305" height="0.622305" fill="white"/>
<rect x="8.02148" y="14.3561" width="0.622305" height="0.622305" fill="white"/>
<rect x="8.6438" y="14.3561" width="0.622305" height="0.622305" fill="white"/>
<rect x="9.26611" y="14.3561" width="0.622305" height="0.622305" fill="white"/>
<rect x="9.88843" y="14.3561" width="0.622305" height="0.622305" fill="white"/>
<rect x="10.5107" y="14.3561" width="0.622305" height="0.622305" fill="white"/>
<rect x="11.1331" y="14.3561" width="0.622305" height="0.622305" fill="white"/>
<rect x="11.7554" y="14.3561" width="0.622305" height="0.622305" fill="white"/>
<rect x="12.3777" y="14.3561" width="0.622305" height="0.622305" fill="white"/>
<rect x="13" y="14.3561" width="0.622305" height="0.622305" fill="white"/>
<rect x="13.6223" y="14.3561" width="0.622305" height="0.622305" fill="white"/>
<rect x="14.2446" y="14.3561" width="0.622305" height="0.622305" fill="white"/>
<rect x="14.8669" y="14.3561" width="0.622305" height="0.622305" fill="white"/>
<rect x="15.489" y="14.3561" width="0.622305" height="0.622305" fill="white"/>
<rect x="16.1113" y="14.3561" width="0.622305" height="0.622305" fill="white"/>
<rect x="16.7336" y="14.3561" width="0.622305" height="0.622305" fill="white"/>
<rect x="17.356" y="14.3561" width="0.622305" height="0.622305" fill="white"/>
<rect x="17.9783" y="14.3561" width="0.622305" height="0.622305" fill="white"/>
<rect x="18.6006" y="14.3561" width="0.622305" height="0.622305" fill="white"/>
<rect x="19.2229" y="14.3561" width="0.622305" height="0.622305" fill="white"/>
<rect x="19.8452" y="14.3561" width="0.622305" height="0.622305" fill="white"/>
<rect x="20.4675" y="14.3561" width="0.622305" height="0.622305" fill="white"/>
<rect x="21.0898" y="14.3561" width="0.622305" height="0.622305" fill="white"/>
<rect x="21.7122" y="14.3561" width="0.622305" height="0.622305" fill="white"/>
<rect x="22.3345" y="14.3561" width="0.622305" height="0.622305" fill="white"/>
<rect x="22.9568" y="14.3561" width="0.622305" height="0.622305" fill="white"/>
<rect x="23.5791" y="14.3561" width="0.622305" height="0.622305" fill="white"/>
<rect x="24.2014" y="14.3561" width="0.622305" height="0.622305" fill="white"/>
<rect x="24.8237" y="14.3561" width="0.622305" height="0.622305" fill="white"/>
<rect x="0.553711" y="14.9785" width="0.622305" height="0.622305" fill="white"/>
<rect x="1.17603" y="14.9785" width="0.622305" height="0.622305" fill="white"/>
<rect x="1.79834" y="14.9785" width="0.622305" height="0.622305" fill="white"/>
<rect x="2.42065" y="14.9785" width="0.622305" height="0.622305" fill="white"/>
<rect x="3.04297" y="14.9785" width="0.622305" height="0.622305" fill="white"/>
<rect x="3.66528" y="14.9785" width="0.622305" height="0.622305" fill="white"/>
<rect x="4.2876" y="14.9785" width="0.622305" height="0.622305" fill="white"/>
<rect x="4.90991" y="14.9785" width="0.622305" height="0.622305" fill="white"/>
<rect x="5.53223" y="14.9785" width="0.622305" height="0.622305" fill="white"/>
<rect x="6.15454" y="14.9785" width="0.622305" height="0.622305" fill="white"/>
<rect x="6.77686" y="14.9785" width="0.622305" height="0.622305" fill="white"/>
<rect x="7.39917" y="14.9785" width="0.622305" height="0.622305" fill="white"/>
<rect x="8.02148" y="14.9785" width="0.622305" height="0.622305" fill="white"/>
<rect x="8.6438" y="14.9785" width="0.622305" height="0.622305" fill="white"/>
<rect x="9.26611" y="14.9785" width="0.622305" height="0.622305" fill="white"/>
<rect x="9.88843" y="14.9785" width="0.622305" height="0.622305" fill="white"/>
<rect x="10.5107" y="14.9785" width="0.622305" height="0.622305" fill="white"/>
<rect x="11.1331" y="14.9785" width="0.622305" height="0.622305" fill="white"/>
<rect x="11.7554" y="14.9785" width="0.622305" height="0.622305" fill="white"/>
<rect x="12.3777" y="14.9785" width="0.622305" height="0.622305" fill="white"/>
<rect x="13" y="14.9785" width="0.622305" height="0.622305" fill="white"/>
<rect x="13.6223" y="14.9785" width="0.622305" height="0.622305" fill="white"/>
<rect x="14.2446" y="14.9785" width="0.622305" height="0.622305" fill="white"/>
<rect x="14.8669" y="14.9785" width="0.622305" height="0.622305" fill="white"/>
<rect x="15.489" y="14.9785" width="0.622305" height="0.622305" fill="white"/>
<rect x="16.1113" y="14.9785" width="0.622305" height="0.622305" fill="white"/>
<rect x="16.7336" y="14.9785" width="0.622305" height="0.622305" fill="white"/>
<rect x="17.356" y="14.9785" width="0.622305" height="0.622305" fill="white"/>
<rect x="17.9783" y="14.9785" width="0.622305" height="0.622305" fill="white"/>
<rect x="18.6006" y="14.9785" width="0.622305" height="0.622305" fill="white"/>
<rect x="19.2229" y="14.9785" width="0.622305" height="0.622305" fill="white"/>
<rect x="19.8452" y="14.9785" width="0.622305" height="0.622305" fill="white"/>
<rect x="20.4675" y="14.9785" width="0.622305" height="0.622305" fill="white"/>
<rect x="21.0898" y="14.9785" width="0.622305" height="0.622305" fill="white"/>
<rect x="21.7122" y="14.9785" width="0.622305" height="0.622305" fill="white"/>
<rect x="22.3345" y="14.9785" width="0.622305" height="0.622305" fill="white"/>
<rect x="22.9568" y="14.9785" width="0.622305" height="0.622305" fill="white"/>
<rect x="23.5791" y="14.9785" width="0.622305" height="0.622305" fill="white"/>
<rect x="24.2014" y="14.9785" width="0.622305" height="0.622305" fill="white"/>
<rect x="24.8237" y="14.9785" width="0.622305" height="0.622305" fill="white"/>
<rect x="1.17603" y="15.6008" width="0.622305" height="0.622305" fill="white"/>
<rect x="1.79834" y="15.6008" width="0.622305" height="0.622305" fill="white"/>
<rect x="2.42065" y="15.6008" width="0.622305" height="0.622305" fill="white"/>
<rect x="3.04297" y="15.6008" width="0.622305" height="0.622305" fill="white"/>
<rect x="3.66528" y="15.6008" width="0.622305" height="0.622305" fill="white"/>
<rect x="4.2876" y="15.6008" width="0.622305" height="0.622305" fill="white"/>
<rect x="4.90991" y="15.6008" width="0.622305" height="0.622305" fill="white"/>
<rect x="5.53223" y="15.6008" width="0.622305" height="0.622305" fill="white"/>
<rect x="6.15454" y="15.6008" width="0.622305" height="0.622305" fill="white"/>
<rect x="6.77686" y="15.6008" width="0.622305" height="0.622305" fill="white"/>
<rect x="7.39917" y="15.6008" width="0.622305" height="0.622305" fill="white"/>
<rect x="8.02148" y="15.6008" width="0.622305" height="0.622305" fill="white"/>
<rect x="8.6438" y="15.6008" width="0.622305" height="0.622305" fill="white"/>
<rect x="9.26611" y="15.6008" width="0.622305" height="0.622305" fill="white"/>
<rect x="9.88843" y="15.6008" width="0.622305" height="0.622305" fill="white"/>
<rect x="10.5107" y="15.6008" width="0.622305" height="0.622305" fill="white"/>
<rect x="11.1331" y="15.6008" width="0.622305" height="0.622305" fill="white"/>
<rect x="11.7554" y="15.6008" width="0.622305" height="0.622305" fill="white"/>
<rect x="12.3777" y="15.6008" width="0.622305" height="0.622305" fill="white"/>
<rect x="13" y="15.6008" width="0.622305" height="0.622305" fill="white"/>
<rect x="13.6223" y="15.6008" width="0.622305" height="0.622305" fill="white"/>
<rect x="14.2446" y="15.6008" width="0.622305" height="0.622305" fill="white"/>
<rect x="14.8669" y="15.6008" width="0.622305" height="0.622305" fill="white"/>
<rect x="15.489" y="15.6008" width="0.622305" height="0.622305" fill="white"/>
<rect x="16.1113" y="15.6008" width="0.622305" height="0.622305" fill="white"/>
<rect x="16.7336" y="15.6008" width="0.622305" height="0.622305" fill="white"/>
<rect x="17.356" y="15.6008" width="0.622305" height="0.622305" fill="white"/>
<rect x="17.9783" y="15.6008" width="0.622305" height="0.622305" fill="white"/>
<rect x="18.6006" y="15.6008" width="0.622305" height="0.622305" fill="white"/>
<rect x="19.2229" y="15.6008" width="0.622305" height="0.622305" fill="white"/>
<rect x="19.8452" y="15.6008" width="0.622305" height="0.622305" fill="white"/>
<rect x="20.4675" y="15.6008" width="0.622305" height="0.622305" fill="white"/>
<rect x="21.0898" y="15.6008" width="0.622305" height="0.622305" fill="white"/>
<rect x="21.7122" y="15.6008" width="0.622305" height="0.622305" fill="white"/>
<rect x="22.3345" y="15.6008" width="0.622305" height="0.622305" fill="white"/>
<rect x="22.9568" y="15.6008" width="0.622305" height="0.622305" fill="white"/>
<rect x="23.5791" y="15.6008" width="0.622305" height="0.622305" fill="white"/>
<rect x="24.2014" y="15.6008" width="0.622305" height="0.622305" fill="white"/>
<rect x="24.8237" y="15.6008" width="0.622305" height="0.622305" fill="white"/>
<rect x="1.17603" y="16.2231" width="0.622305" height="0.622305" fill="white"/>
<rect x="1.79834" y="16.2231" width="0.622305" height="0.622305" fill="white"/>
<rect x="2.42065" y="16.2231" width="0.622305" height="0.622305" fill="white"/>
<rect x="3.04297" y="16.2231" width="0.622305" height="0.622305" fill="white"/>
<rect x="3.66528" y="16.2231" width="0.622305" height="0.622305" fill="white"/>
<rect x="4.2876" y="16.2231" width="0.622305" height="0.622305" fill="white"/>
<rect x="4.90991" y="16.2231" width="0.622305" height="0.622305" fill="white"/>
<rect x="5.53223" y="16.2231" width="0.622305" height="0.622305" fill="white"/>
<rect x="6.15454" y="16.2231" width="0.622305" height="0.622305" fill="white"/>
<rect x="8.6438" y="16.2231" width="0.622305" height="0.622305" fill="white"/>
<rect x="9.26611" y="16.2231" width="0.622305" height="0.622305" fill="white"/>
<rect x="9.88843" y="16.2231" width="0.622305" height="0.622305" fill="white"/>
<rect x="10.5107" y="16.2231" width="0.622305" height="0.622305" fill="white"/>
<rect x="11.1331" y="16.2231" width="0.622305" height="0.622305" fill="white"/>
<rect x="11.7554" y="16.2231" width="0.622305" height="0.622305" fill="white"/>
<rect x="12.3777" y="16.2231" width="0.622305" height="0.622305" fill="white"/>
<rect x="13" y="16.2231" width="0.622305" height="0.622305" fill="white"/>
<rect x="13.6223" y="16.2231" width="0.622305" height="0.622305" fill="white"/>
<rect x="14.2446" y="16.2231" width="0.622305" height="0.622305" fill="white"/>
<rect x="14.8669" y="16.2231" width="0.622305" height="0.622305" fill="white"/>
<rect x="15.489" y="16.2231" width="0.622305" height="0.622305" fill="white"/>
<rect x="16.1113" y="16.2231" width="0.622305" height="0.622305" fill="white"/>
<rect x="16.7336" y="16.2231" width="0.622305" height="0.622305" fill="white"/>
<rect x="17.356" y="16.2231" width="0.622305" height="0.622305" fill="white"/>
<rect x="19.2229" y="16.2231" width="0.622305" height="0.622305" fill="white"/>
<rect x="19.8452" y="16.2231" width="0.622305" height="0.622305" fill="white"/>
<rect x="20.4675" y="16.2231" width="0.622305" height="0.622305" fill="white"/>
<rect x="21.0898" y="16.2231" width="0.622305" height="0.622305" fill="white"/>
<rect x="21.7122" y="16.2231" width="0.622305" height="0.622305" fill="white"/>
<rect x="22.3345" y="16.2231" width="0.622305" height="0.622305" fill="white"/>
<rect x="22.9568" y="16.2231" width="0.622305" height="0.622305" fill="white"/>
<rect x="23.5791" y="16.2231" width="0.622305" height="0.622305" fill="white"/>
<rect x="24.2014" y="16.2231" width="0.622305" height="0.622305" fill="white"/>
<rect x="2.42065" y="16.8453" width="0.622305" height="0.622305" fill="white"/>
<rect x="3.04297" y="16.8453" width="0.622305" height="0.622305" fill="white"/>
<rect x="3.66528" y="16.8453" width="0.622305" height="0.622305" fill="white"/>
<rect x="4.2876" y="16.8453" width="0.622305" height="0.622305" fill="white"/>
<rect x="4.90991" y="16.8453" width="0.622305" height="0.622305" fill="white"/>
<rect x="5.53223" y="16.8453" width="0.622305" height="0.622305" fill="white"/>
<rect x="6.15454" y="16.8453" width="0.622305" height="0.622305" fill="white"/>
<rect x="6.77686" y="16.8453" width="0.622305" height="0.622305" fill="white"/>
<rect x="7.39917" y="16.8453" width="0.622305" height="0.622305" fill="white"/>
<rect x="11.1331" y="16.8453" width="0.622305" height="0.622305" fill="white"/>
<rect x="11.7554" y="16.8453" width="0.622305" height="0.622305" fill="white"/>
<rect x="12.3777" y="16.8453" width="0.622305" height="0.622305" fill="white"/>
<rect x="13" y="16.8453" width="0.622305" height="0.622305" fill="white"/>
<rect x="13.6223" y="16.8453" width="0.622305" height="0.622305" fill="white"/>
<rect x="14.2446" y="16.8453" width="0.622305" height="0.622305" fill="white"/>
<rect x="17.9783" y="16.8453" width="0.622305" height="0.622305" fill="white"/>
<rect x="18.6006" y="16.8453" width="0.622305" height="0.622305" fill="white"/>
<rect x="19.2229" y="16.8453" width="0.622305" height="0.622305" fill="white"/>
<rect x="19.8452" y="16.8453" width="0.622305" height="0.622305" fill="white"/>
<rect x="20.4675" y="16.8453" width="0.622305" height="0.622305" fill="white"/>
<rect x="21.0898" y="16.8453" width="0.622305" height="0.622305" fill="white"/>
<rect x="21.7122" y="16.8453" width="0.622305" height="0.622305" fill="white"/>
<rect x="22.3345" y="16.8453" width="0.622305" height="0.622305" fill="white"/>
<rect x="22.9568" y="16.8453" width="0.622305" height="0.622305" fill="white"/>
<rect x="23.5791" y="16.8453" width="0.622305" height="0.622305" fill="white"/>
<rect x="3.04297" y="17.4677" width="0.622305" height="0.622305" fill="white"/>
<rect x="3.66528" y="17.4677" width="0.622305" height="0.622305" fill="white"/>
<rect x="4.2876" y="17.4677" width="0.622305" height="0.622305" fill="white"/>
<rect x="4.90991" y="17.4677" width="0.622305" height="0.622305" fill="white"/>
<rect x="5.53223" y="17.4677" width="0.622305" height="0.622305" fill="white"/>
<rect x="6.15454" y="17.4677" width="0.622305" height="0.622305" fill="white"/>
<rect x="6.77686" y="17.4677" width="0.622305" height="0.622305" fill="white"/>
<rect x="7.39917" y="17.4677" width="0.622305" height="0.622305" fill="white"/>
<rect x="17.9783" y="17.4677" width="0.622305" height="0.622305" fill="white"/>
<rect x="18.6006" y="17.4677" width="0.622305" height="0.622305" fill="white"/>
<rect x="19.2229" y="17.4677" width="0.622305" height="0.622305" fill="white"/>
<rect x="19.8452" y="17.4677" width="0.622305" height="0.622305" fill="white"/>
<rect x="20.4675" y="17.4677" width="0.622305" height="0.622305" fill="white"/>
<rect x="21.0898" y="17.4677" width="0.622305" height="0.622305" fill="white"/>
<rect x="21.7122" y="17.4677" width="0.622305" height="0.622305" fill="white"/>
<rect x="22.3345" y="17.4677" width="0.622305" height="0.622305" fill="white"/>
<rect x="4.2876" y="18.09" width="0.622305" height="0.622305" fill="white"/>
<rect x="4.90991" y="18.09" width="0.622305" height="0.622305" fill="white"/>
<rect x="5.53223" y="18.09" width="0.622305" height="0.622305" fill="white"/>
<rect x="6.15454" y="18.09" width="0.622305" height="0.622305" fill="white"/>
<rect x="6.77686" y="18.09" width="0.622305" height="0.622305" fill="white"/>
<rect x="7.39917" y="18.09" width="0.622305" height="0.622305" fill="white"/>
<rect x="18.6006" y="18.09" width="0.622305" height="0.622305" fill="white"/>
<rect x="19.2229" y="18.09" width="0.622305" height="0.622305" fill="white"/>
<rect x="19.8452" y="18.09" width="0.622305" height="0.622305" fill="white"/>
<rect x="20.4675" y="18.09" width="0.622305" height="0.622305" fill="white"/>
<rect x="21.0898" y="18.09" width="0.622305" height="0.622305" fill="white"/>
<rect x="5.53223" y="18.7123" width="0.622305" height="0.622305" fill="white"/>
<rect x="6.15454" y="18.7123" width="0.622305" height="0.622305" fill="white"/>
<rect x="6.77686" y="18.7123" width="0.622305" height="0.622305" fill="white"/>
<rect x="18.6006" y="18.7123" width="0.622305" height="0.622305" fill="white"/>
<rect x="19.2229" y="18.7123" width="0.622305" height="0.622305" fill="white"/>
<rect x="19.8452" y="18.7123" width="0.622305" height="0.622305" fill="white"/>
</svg>
