<svg width="24" height="22" viewBox="0 0 24 22" fill="none" xmlns="http://www.w3.org/2000/svg">
<rect x="22.5" y="0.875" width="0.75" height="0.75" fill="white"/>
<rect x="23.25" y="0.875" width="0.75" height="0.75" fill="white"/>
<rect x="20.25" y="1.625" width="0.75" height="0.75" fill="white"/>
<rect x="21" y="1.625" width="0.75" height="0.75" fill="white"/>
<rect x="21.75" y="1.625" width="0.75" height="0.75" fill="white"/>
<rect x="22.5" y="1.625" width="0.75" height="0.75" fill="white"/>
<rect x="23.25" y="1.625" width="0.75" height="0.75" fill="white"/>
<rect x="18" y="2.375" width="0.75" height="0.75" fill="white"/>
<rect x="18.75" y="2.375" width="0.75" height="0.75" fill="white"/>
<rect x="19.5" y="2.375" width="0.75" height="0.75" fill="white"/>
<rect x="20.25" y="2.375" width="0.75" height="0.75" fill="white"/>
<rect x="21" y="2.375" width="0.75" height="0.75" fill="white"/>
<rect x="21.75" y="2.375" width="0.75" height="0.75" fill="white"/>
<rect x="22.5" y="2.375" width="0.75" height="0.75" fill="white"/>
<rect x="23.25" y="2.375" width="0.75" height="0.75" fill="white"/>
<rect x="16.5" y="3.125" width="0.75" height="0.75" fill="white"/>
<rect x="17.25" y="3.125" width="0.75" height="0.75" fill="white"/>
<rect x="18" y="3.125" width="0.75" height="0.75" fill="white"/>
<rect x="18.75" y="3.125" width="0.75" height="0.75" fill="white"/>
<rect x="19.5" y="3.125" width="0.75" height="0.75" fill="white"/>
<rect x="20.25" y="3.125" width="0.75" height="0.75" fill="white"/>
<rect x="21" y="3.125" width="0.75" height="0.75" fill="white"/>
<rect x="21.75" y="3.125" width="0.75" height="0.75" fill="white"/>
<rect x="22.5" y="3.125" width="0.75" height="0.75" fill="white"/>
<rect x="23.25" y="3.125" width="0.75" height="0.75" fill="white"/>
<rect x="14.25" y="3.875" width="0.75" height="0.75" fill="white"/>
<rect x="15" y="3.875" width="0.75" height="0.75" fill="white"/>
<rect x="15.75" y="3.875" width="0.75" height="0.75" fill="white"/>
<rect x="16.5" y="3.875" width="0.75" height="0.75" fill="white"/>
<rect x="17.25" y="3.875" width="0.75" height="0.75" fill="white"/>
<rect x="18" y="3.875" width="0.75" height="0.75" fill="white"/>
<rect x="18.75" y="3.875" width="0.75" height="0.75" fill="white"/>
<rect x="19.5" y="3.875" width="0.75" height="0.75" fill="white"/>
<rect x="20.25" y="3.875" width="0.75" height="0.75" fill="white"/>
<rect x="21" y="3.875" width="0.75" height="0.75" fill="white"/>
<rect x="21.75" y="3.875" width="0.75" height="0.75" fill="white"/>
<rect x="22.5" y="3.875" width="0.75" height="0.75" fill="white"/>
<rect x="23.25" y="3.875" width="0.75" height="0.75" fill="white"/>
<rect x="12.75" y="4.625" width="0.75" height="0.75" fill="white"/>
<rect x="13.5" y="4.625" width="0.75" height="0.75" fill="white"/>
<rect x="14.25" y="4.625" width="0.75" height="0.75" fill="white"/>
<rect x="15" y="4.625" width="0.75" height="0.75" fill="white"/>
<rect x="15.75" y="4.625" width="0.75" height="0.75" fill="white"/>
<rect x="16.5" y="4.625" width="0.75" height="0.75" fill="white"/>
<rect x="17.25" y="4.625" width="0.75" height="0.75" fill="white"/>
<rect x="18" y="4.625" width="0.75" height="0.75" fill="white"/>
<rect x="20.25" y="4.625" width="0.75" height="0.75" fill="white"/>
<rect x="21" y="4.625" width="0.75" height="0.75" fill="white"/>
<rect x="21.75" y="4.625" width="0.75" height="0.75" fill="white"/>
<rect x="22.5" y="4.625" width="0.75" height="0.75" fill="white"/>
<rect x="23.25" y="4.625" width="0.75" height="0.75" fill="white"/>
<rect x="10.5" y="5.375" width="0.75" height="0.75" fill="white"/>
<rect x="11.25" y="5.375" width="0.75" height="0.75" fill="white"/>
<rect x="12" y="5.375" width="0.75" height="0.75" fill="white"/>
<rect x="12.75" y="5.375" width="0.75" height="0.75" fill="white"/>
<rect x="13.5" y="5.375" width="0.75" height="0.75" fill="white"/>
<rect x="14.25" y="5.375" width="0.75" height="0.75" fill="white"/>
<rect x="15" y="5.375" width="0.75" height="0.75" fill="white"/>
<rect x="15.75" y="5.375" width="0.75" height="0.75" fill="white"/>
<rect x="16.5" y="5.375" width="0.75" height="0.75" fill="white"/>
<rect x="17.25" y="5.375" width="0.75" height="0.75" fill="white"/>
<rect x="18.75" y="5.375" width="0.75" height="0.75" fill="white"/>
<rect x="19.5" y="5.375" width="0.75" height="0.75" fill="white"/>
<rect x="20.25" y="5.375" width="0.75" height="0.75" fill="white"/>
<rect x="21" y="5.375" width="0.75" height="0.75" fill="white"/>
<rect x="21.75" y="5.375" width="0.75" height="0.75" fill="white"/>
<rect x="22.5" y="5.375" width="0.75" height="0.75" fill="white"/>
<rect x="23.25" y="5.375" width="0.75" height="0.75" fill="white"/>
<rect x="8.25" y="6.125" width="0.75" height="0.75" fill="white"/>
<rect x="9" y="6.125" width="0.75" height="0.75" fill="white"/>
<rect x="9.75" y="6.125" width="0.75" height="0.75" fill="white"/>
<rect x="10.5" y="6.125" width="0.75" height="0.75" fill="white"/>
<rect x="11.25" y="6.125" width="0.75" height="0.75" fill="white"/>
<rect x="12" y="6.125" width="0.75" height="0.75" fill="white"/>
<rect x="12.75" y="6.125" width="0.75" height="0.75" fill="white"/>
<rect x="13.5" y="6.125" width="0.75" height="0.75" fill="white"/>
<rect x="14.25" y="6.125" width="0.75" height="0.75" fill="white"/>
<rect x="15" y="6.125" width="0.75" height="0.75" fill="white"/>
<rect x="15.75" y="6.125" width="0.75" height="0.75" fill="white"/>
<rect x="18" y="6.125" width="0.75" height="0.75" fill="white"/>
<rect x="18.75" y="6.125" width="0.75" height="0.75" fill="white"/>
<rect x="19.5" y="6.125" width="0.75" height="0.75" fill="white"/>
<rect x="20.25" y="6.125" width="0.75" height="0.75" fill="white"/>
<rect x="21" y="6.125" width="0.75" height="0.75" fill="white"/>
<rect x="21.75" y="6.125" width="0.75" height="0.75" fill="white"/>
<rect x="22.5" y="6.125" width="0.75" height="0.75" fill="white"/>
<rect x="6.75" y="6.875" width="0.75" height="0.75" fill="white"/>
<rect x="7.5" y="6.875" width="0.75" height="0.75" fill="white"/>
<rect x="8.25" y="6.875" width="0.75" height="0.75" fill="white"/>
<rect x="9" y="6.875" width="0.75" height="0.75" fill="white"/>
<rect x="9.75" y="6.875" width="0.75" height="0.75" fill="white"/>
<rect x="10.5" y="6.875" width="0.75" height="0.75" fill="white"/>
<rect x="11.25" y="6.875" width="0.75" height="0.75" fill="white"/>
<rect x="12" y="6.875" width="0.75" height="0.75" fill="white"/>
<rect x="12.75" y="6.875" width="0.75" height="0.75" fill="white"/>
<rect x="13.5" y="6.875" width="0.75" height="0.75" fill="white"/>
<rect x="14.25" y="6.875" width="0.75" height="0.75" fill="white"/>
<rect x="15" y="6.875" width="0.75" height="0.75" fill="white"/>
<rect x="17.25" y="6.875" width="0.75" height="0.75" fill="white"/>
<rect x="18" y="6.875" width="0.75" height="0.75" fill="white"/>
<rect x="18.75" y="6.875" width="0.75" height="0.75" fill="white"/>
<rect x="19.5" y="6.875" width="0.75" height="0.75" fill="white"/>
<rect x="20.25" y="6.875" width="0.75" height="0.75" fill="white"/>
<rect x="21" y="6.875" width="0.75" height="0.75" fill="white"/>
<rect x="21.75" y="6.875" width="0.75" height="0.75" fill="white"/>
<rect x="22.5" y="6.875" width="0.75" height="0.75" fill="white"/>
<rect x="4.5" y="7.625" width="0.75" height="0.75" fill="white"/>
<rect x="5.25" y="7.625" width="0.75" height="0.75" fill="white"/>
<rect x="6" y="7.625" width="0.75" height="0.75" fill="white"/>
<rect x="6.75" y="7.625" width="0.75" height="0.75" fill="white"/>
<rect x="7.5" y="7.625" width="0.75" height="0.75" fill="white"/>
<rect x="8.25" y="7.625" width="0.75" height="0.75" fill="white"/>
<rect x="9" y="7.625" width="0.75" height="0.75" fill="white"/>
<rect x="9.75" y="7.625" width="0.75" height="0.75" fill="white"/>
<rect x="10.5" y="7.625" width="0.75" height="0.75" fill="white"/>
<rect x="11.25" y="7.625" width="0.75" height="0.75" fill="white"/>
<rect x="12" y="7.625" width="0.75" height="0.75" fill="white"/>
<rect x="12.75" y="7.625" width="0.75" height="0.75" fill="white"/>
<rect x="13.5" y="7.625" width="0.75" height="0.75" fill="white"/>
<rect x="16.5" y="7.625" width="0.75" height="0.75" fill="white"/>
<rect x="17.25" y="7.625" width="0.75" height="0.75" fill="white"/>
<rect x="18" y="7.625" width="0.75" height="0.75" fill="white"/>
<rect x="18.75" y="7.625" width="0.75" height="0.75" fill="white"/>
<rect x="19.5" y="7.625" width="0.75" height="0.75" fill="white"/>
<rect x="20.25" y="7.625" width="0.75" height="0.75" fill="white"/>
<rect x="21" y="7.625" width="0.75" height="0.75" fill="white"/>
<rect x="21.75" y="7.625" width="0.75" height="0.75" fill="white"/>
<rect x="22.5" y="7.625" width="0.75" height="0.75" fill="white"/>
<rect x="3" y="8.375" width="0.75" height="0.75" fill="white"/>
<rect x="3.75" y="8.375" width="0.75" height="0.75" fill="white"/>
<rect x="4.5" y="8.375" width="0.75" height="0.75" fill="white"/>
<rect x="5.25" y="8.375" width="0.75" height="0.75" fill="white"/>
<rect x="6" y="8.375" width="0.75" height="0.75" fill="white"/>
<rect x="6.75" y="8.375" width="0.75" height="0.75" fill="white"/>
<rect x="7.5" y="8.375" width="0.75" height="0.75" fill="white"/>
<rect x="8.25" y="8.375" width="0.75" height="0.75" fill="white"/>
<rect x="9" y="8.375" width="0.75" height="0.75" fill="white"/>
<rect x="9.75" y="8.375" width="0.75" height="0.75" fill="white"/>
<rect x="10.5" y="8.375" width="0.75" height="0.75" fill="white"/>
<rect x="11.25" y="8.375" width="0.75" height="0.75" fill="white"/>
<rect x="12" y="8.375" width="0.75" height="0.75" fill="white"/>
<rect x="15.75" y="8.375" width="0.75" height="0.75" fill="white"/>
<rect x="16.5" y="8.375" width="0.75" height="0.75" fill="white"/>
<rect x="17.25" y="8.375" width="0.75" height="0.75" fill="white"/>
<rect x="18" y="8.375" width="0.75" height="0.75" fill="white"/>
<rect x="18.75" y="8.375" width="0.75" height="0.75" fill="white"/>
<rect x="19.5" y="8.375" width="0.75" height="0.75" fill="white"/>
<rect x="20.25" y="8.375" width="0.75" height="0.75" fill="white"/>
<rect x="21" y="8.375" width="0.75" height="0.75" fill="white"/>
<rect x="21.75" y="8.375" width="0.75" height="0.75" fill="white"/>
<rect x="22.5" y="8.375" width="0.75" height="0.75" fill="white"/>
<rect x="0.75" y="9.125" width="0.75" height="0.75" fill="white"/>
<rect x="1.5" y="9.125" width="0.75" height="0.75" fill="white"/>
<rect x="2.25" y="9.125" width="0.75" height="0.75" fill="white"/>
<rect x="3" y="9.125" width="0.75" height="0.75" fill="white"/>
<rect x="3.75" y="9.125" width="0.75" height="0.75" fill="white"/>
<rect x="4.5" y="9.125" width="0.75" height="0.75" fill="white"/>
<rect x="5.25" y="9.125" width="0.75" height="0.75" fill="white"/>
<rect x="6" y="9.125" width="0.75" height="0.75" fill="white"/>
<rect x="6.75" y="9.125" width="0.75" height="0.75" fill="white"/>
<rect x="7.5" y="9.125" width="0.75" height="0.75" fill="white"/>
<rect x="8.25" y="9.125" width="0.75" height="0.75" fill="white"/>
<rect x="9" y="9.125" width="0.75" height="0.75" fill="white"/>
<rect x="9.75" y="9.125" width="0.75" height="0.75" fill="white"/>
<rect x="10.5" y="9.125" width="0.75" height="0.75" fill="white"/>
<rect x="11.25" y="9.125" width="0.75" height="0.75" fill="white"/>
<rect x="15" y="9.125" width="0.75" height="0.75" fill="white"/>
<rect x="15.75" y="9.125" width="0.75" height="0.75" fill="white"/>
<rect x="16.5" y="9.125" width="0.75" height="0.75" fill="white"/>
<rect x="17.25" y="9.125" width="0.75" height="0.75" fill="white"/>
<rect x="18" y="9.125" width="0.75" height="0.75" fill="white"/>
<rect x="18.75" y="9.125" width="0.75" height="0.75" fill="white"/>
<rect x="19.5" y="9.125" width="0.75" height="0.75" fill="white"/>
<rect x="20.25" y="9.125" width="0.75" height="0.75" fill="white"/>
<rect x="21" y="9.125" width="0.75" height="0.75" fill="white"/>
<rect x="21.75" y="9.125" width="0.75" height="0.75" fill="white"/>
<rect x="22.5" y="9.125" width="0.75" height="0.75" fill="white"/>
<rect y="9.875" width="0.75" height="0.75" fill="white"/>
<rect x="0.75" y="9.875" width="0.75" height="0.75" fill="white"/>
<rect x="1.5" y="9.875" width="0.75" height="0.75" fill="white"/>
<rect x="2.25" y="9.875" width="0.75" height="0.75" fill="white"/>
<rect x="3" y="9.875" width="0.75" height="0.75" fill="white"/>
<rect x="3.75" y="9.875" width="0.75" height="0.75" fill="white"/>
<rect x="4.5" y="9.875" width="0.75" height="0.75" fill="white"/>
<rect x="5.25" y="9.875" width="0.75" height="0.75" fill="white"/>
<rect x="6" y="9.875" width="0.75" height="0.75" fill="white"/>
<rect x="6.75" y="9.875" width="0.75" height="0.75" fill="white"/>
<rect x="7.5" y="9.875" width="0.75" height="0.75" fill="white"/>
<rect x="8.25" y="9.875" width="0.75" height="0.75" fill="white"/>
<rect x="9" y="9.875" width="0.75" height="0.75" fill="white"/>
<rect x="9.75" y="9.875" width="0.75" height="0.75" fill="white"/>
<rect x="14.25" y="9.875" width="0.75" height="0.75" fill="white"/>
<rect x="15" y="9.875" width="0.75" height="0.75" fill="white"/>
<rect x="15.75" y="9.875" width="0.75" height="0.75" fill="white"/>
<rect x="16.5" y="9.875" width="0.75" height="0.75" fill="white"/>
<rect x="17.25" y="9.875" width="0.75" height="0.75" fill="white"/>
<rect x="18" y="9.875" width="0.75" height="0.75" fill="white"/>
<rect x="18.75" y="9.875" width="0.75" height="0.75" fill="white"/>
<rect x="19.5" y="9.875" width="0.75" height="0.75" fill="white"/>
<rect x="20.25" y="9.875" width="0.75" height="0.75" fill="white"/>
<rect x="21" y="9.875" width="0.75" height="0.75" fill="white"/>
<rect x="21.75" y="9.875" width="0.75" height="0.75" fill="white"/>
<rect x="1.5" y="10.625" width="0.75" height="0.75" fill="white"/>
<rect x="2.25" y="10.625" width="0.75" height="0.75" fill="white"/>
<rect x="3" y="10.625" width="0.75" height="0.75" fill="white"/>
<rect x="3.75" y="10.625" width="0.75" height="0.75" fill="white"/>
<rect x="4.5" y="10.625" width="0.75" height="0.75" fill="white"/>
<rect x="5.25" y="10.625" width="0.75" height="0.75" fill="white"/>
<rect x="6" y="10.625" width="0.75" height="0.75" fill="white"/>
<rect x="6.75" y="10.625" width="0.75" height="0.75" fill="white"/>
<rect x="7.5" y="10.625" width="0.75" height="0.75" fill="white"/>
<rect x="8.25" y="10.625" width="0.75" height="0.75" fill="white"/>
<rect x="9" y="10.625" width="0.75" height="0.75" fill="white"/>
<rect x="13.5" y="10.625" width="0.75" height="0.75" fill="white"/>
<rect x="14.25" y="10.625" width="0.75" height="0.75" fill="white"/>
<rect x="15" y="10.625" width="0.75" height="0.75" fill="white"/>
<rect x="15.75" y="10.625" width="0.75" height="0.75" fill="white"/>
<rect x="16.5" y="10.625" width="0.75" height="0.75" fill="white"/>
<rect x="17.25" y="10.625" width="0.75" height="0.75" fill="white"/>
<rect x="18" y="10.625" width="0.75" height="0.75" fill="white"/>
<rect x="18.75" y="10.625" width="0.75" height="0.75" fill="white"/>
<rect x="19.5" y="10.625" width="0.75" height="0.75" fill="white"/>
<rect x="20.25" y="10.625" width="0.75" height="0.75" fill="white"/>
<rect x="21" y="10.625" width="0.75" height="0.75" fill="white"/>
<rect x="21.75" y="10.625" width="0.75" height="0.75" fill="white"/>
<rect x="3.75" y="11.375" width="0.75" height="0.75" fill="white"/>
<rect x="4.5" y="11.375" width="0.75" height="0.75" fill="white"/>
<rect x="5.25" y="11.375" width="0.75" height="0.75" fill="white"/>
<rect x="6" y="11.375" width="0.75" height="0.75" fill="white"/>
<rect x="6.75" y="11.375" width="0.75" height="0.75" fill="white"/>
<rect x="7.5" y="11.375" width="0.75" height="0.75" fill="white"/>
<rect x="12.75" y="11.375" width="0.75" height="0.75" fill="white"/>
<rect x="13.5" y="11.375" width="0.75" height="0.75" fill="white"/>
<rect x="14.25" y="11.375" width="0.75" height="0.75" fill="white"/>
<rect x="15" y="11.375" width="0.75" height="0.75" fill="white"/>
<rect x="15.75" y="11.375" width="0.75" height="0.75" fill="white"/>
<rect x="16.5" y="11.375" width="0.75" height="0.75" fill="white"/>
<rect x="17.25" y="11.375" width="0.75" height="0.75" fill="white"/>
<rect x="18" y="11.375" width="0.75" height="0.75" fill="white"/>
<rect x="18.75" y="11.375" width="0.75" height="0.75" fill="white"/>
<rect x="19.5" y="11.375" width="0.75" height="0.75" fill="white"/>
<rect x="20.25" y="11.375" width="0.75" height="0.75" fill="white"/>
<rect x="21" y="11.375" width="0.75" height="0.75" fill="white"/>
<rect x="21.75" y="11.375" width="0.75" height="0.75" fill="white"/>
<rect x="6" y="12.125" width="0.75" height="0.75" fill="white"/>
<rect x="11.25" y="12.125" width="0.75" height="0.75" fill="white"/>
<rect x="12" y="12.125" width="0.75" height="0.75" fill="white"/>
<rect x="12.75" y="12.125" width="0.75" height="0.75" fill="white"/>
<rect x="13.5" y="12.125" width="0.75" height="0.75" fill="white"/>
<rect x="14.25" y="12.125" width="0.75" height="0.75" fill="white"/>
<rect x="15" y="12.125" width="0.75" height="0.75" fill="white"/>
<rect x="15.75" y="12.125" width="0.75" height="0.75" fill="white"/>
<rect x="16.5" y="12.125" width="0.75" height="0.75" fill="white"/>
<rect x="17.25" y="12.125" width="0.75" height="0.75" fill="white"/>
<rect x="18" y="12.125" width="0.75" height="0.75" fill="white"/>
<rect x="18.75" y="12.125" width="0.75" height="0.75" fill="white"/>
<rect x="19.5" y="12.125" width="0.75" height="0.75" fill="white"/>
<rect x="20.25" y="12.125" width="0.75" height="0.75" fill="white"/>
<rect x="21" y="12.125" width="0.75" height="0.75" fill="white"/>
<rect x="21.75" y="12.125" width="0.75" height="0.75" fill="white"/>
<rect x="10.5" y="12.875" width="0.75" height="0.75" fill="white"/>
<rect x="11.25" y="12.875" width="0.75" height="0.75" fill="white"/>
<rect x="12" y="12.875" width="0.75" height="0.75" fill="white"/>
<rect x="12.75" y="12.875" width="0.75" height="0.75" fill="white"/>
<rect x="13.5" y="12.875" width="0.75" height="0.75" fill="white"/>
<rect x="14.25" y="12.875" width="0.75" height="0.75" fill="white"/>
<rect x="15" y="12.875" width="0.75" height="0.75" fill="white"/>
<rect x="15.75" y="12.875" width="0.75" height="0.75" fill="white"/>
<rect x="16.5" y="12.875" width="0.75" height="0.75" fill="white"/>
<rect x="17.25" y="12.875" width="0.75" height="0.75" fill="white"/>
<rect x="18" y="12.875" width="0.75" height="0.75" fill="white"/>
<rect x="18.75" y="12.875" width="0.75" height="0.75" fill="white"/>
<rect x="19.5" y="12.875" width="0.75" height="0.75" fill="white"/>
<rect x="20.25" y="12.875" width="0.75" height="0.75" fill="white"/>
<rect x="21" y="12.875" width="0.75" height="0.75" fill="white"/>
<rect x="9.75" y="13.625" width="0.75" height="0.75" fill="white"/>
<rect x="10.5" y="13.625" width="0.75" height="0.75" fill="white"/>
<rect x="11.25" y="13.625" width="0.75" height="0.75" fill="white"/>
<rect x="12" y="13.625" width="0.75" height="0.75" fill="white"/>
<rect x="12.75" y="13.625" width="0.75" height="0.75" fill="white"/>
<rect x="13.5" y="13.625" width="0.75" height="0.75" fill="white"/>
<rect x="14.25" y="13.625" width="0.75" height="0.75" fill="white"/>
<rect x="15" y="13.625" width="0.75" height="0.75" fill="white"/>
<rect x="15.75" y="13.625" width="0.75" height="0.75" fill="white"/>
<rect x="16.5" y="13.625" width="0.75" height="0.75" fill="white"/>
<rect x="17.25" y="13.625" width="0.75" height="0.75" fill="white"/>
<rect x="18" y="13.625" width="0.75" height="0.75" fill="white"/>
<rect x="18.75" y="13.625" width="0.75" height="0.75" fill="white"/>
<rect x="19.5" y="13.625" width="0.75" height="0.75" fill="white"/>
<rect x="20.25" y="13.625" width="0.75" height="0.75" fill="white"/>
<rect x="21" y="13.625" width="0.75" height="0.75" fill="white"/>
<rect x="9.75" y="14.375" width="0.75" height="0.75" fill="white"/>
<rect x="10.5" y="14.375" width="0.75" height="0.75" fill="white"/>
<rect x="11.25" y="14.375" width="0.75" height="0.75" fill="white"/>
<rect x="12" y="14.375" width="0.75" height="0.75" fill="white"/>
<rect x="12.75" y="14.375" width="0.75" height="0.75" fill="white"/>
<rect x="13.5" y="14.375" width="0.75" height="0.75" fill="white"/>
<rect x="14.25" y="14.375" width="0.75" height="0.75" fill="white"/>
<rect x="15" y="14.375" width="0.75" height="0.75" fill="white"/>
<rect x="15.75" y="14.375" width="0.75" height="0.75" fill="white"/>
<rect x="16.5" y="14.375" width="0.75" height="0.75" fill="white"/>
<rect x="17.25" y="14.375" width="0.75" height="0.75" fill="white"/>
<rect x="18" y="14.375" width="0.75" height="0.75" fill="white"/>
<rect x="18.75" y="14.375" width="0.75" height="0.75" fill="white"/>
<rect x="19.5" y="14.375" width="0.75" height="0.75" fill="white"/>
<rect x="20.25" y="14.375" width="0.75" height="0.75" fill="white"/>
<rect x="21" y="14.375" width="0.75" height="0.75" fill="white"/>
<rect x="9.75" y="15.125" width="0.75" height="0.75" fill="white"/>
<rect x="10.5" y="15.125" width="0.75" height="0.75" fill="white"/>
<rect x="11.25" y="15.125" width="0.75" height="0.75" fill="white"/>
<rect x="12" y="15.125" width="0.75" height="0.75" fill="white"/>
<rect x="12.75" y="15.125" width="0.75" height="0.75" fill="white"/>
<rect x="13.5" y="15.125" width="0.75" height="0.75" fill="white"/>
<rect x="14.25" y="15.125" width="0.75" height="0.75" fill="white"/>
<rect x="15" y="15.125" width="0.75" height="0.75" fill="white"/>
<rect x="15.75" y="15.125" width="0.75" height="0.75" fill="white"/>
<rect x="16.5" y="15.125" width="0.75" height="0.75" fill="white"/>
<rect x="17.25" y="15.125" width="0.75" height="0.75" fill="white"/>
<rect x="18" y="15.125" width="0.75" height="0.75" fill="white"/>
<rect x="18.75" y="15.125" width="0.75" height="0.75" fill="white"/>
<rect x="19.5" y="15.125" width="0.75" height="0.75" fill="white"/>
<rect x="20.25" y="15.125" width="0.75" height="0.75" fill="white"/>
<rect x="21" y="15.125" width="0.75" height="0.75" fill="white"/>
<rect x="9.75" y="15.875" width="0.75" height="0.75" fill="white"/>
<rect x="10.5" y="15.875" width="0.75" height="0.75" fill="white"/>
<rect x="11.25" y="15.875" width="0.75" height="0.75" fill="white"/>
<rect x="12" y="15.875" width="0.75" height="0.75" fill="white"/>
<rect x="12.75" y="15.875" width="0.75" height="0.75" fill="white"/>
<rect x="13.5" y="15.875" width="0.75" height="0.75" fill="white"/>
<rect x="14.25" y="15.875" width="0.75" height="0.75" fill="white"/>
<rect x="15" y="15.875" width="0.75" height="0.75" fill="white"/>
<rect x="15.75" y="15.875" width="0.75" height="0.75" fill="white"/>
<rect x="16.5" y="15.875" width="0.75" height="0.75" fill="white"/>
<rect x="17.25" y="15.875" width="0.75" height="0.75" fill="white"/>
<rect x="18" y="15.875" width="0.75" height="0.75" fill="white"/>
<rect x="18.75" y="15.875" width="0.75" height="0.75" fill="white"/>
<rect x="19.5" y="15.875" width="0.75" height="0.75" fill="white"/>
<rect x="20.25" y="15.875" width="0.75" height="0.75" fill="white"/>
<rect x="21" y="15.875" width="0.75" height="0.75" fill="white"/>
<rect x="9.75" y="16.625" width="0.75" height="0.75" fill="white"/>
<rect x="10.5" y="16.625" width="0.75" height="0.75" fill="white"/>
<rect x="11.25" y="16.625" width="0.75" height="0.75" fill="white"/>
<rect x="12" y="16.625" width="0.75" height="0.75" fill="white"/>
<rect x="13.5" y="16.625" width="0.75" height="0.75" fill="white"/>
<rect x="14.25" y="16.625" width="0.75" height="0.75" fill="white"/>
<rect x="15" y="16.625" width="0.75" height="0.75" fill="white"/>
<rect x="15.75" y="16.625" width="0.75" height="0.75" fill="white"/>
<rect x="16.5" y="16.625" width="0.75" height="0.75" fill="white"/>
<rect x="17.25" y="16.625" width="0.75" height="0.75" fill="white"/>
<rect x="18" y="16.625" width="0.75" height="0.75" fill="white"/>
<rect x="18.75" y="16.625" width="0.75" height="0.75" fill="white"/>
<rect x="19.5" y="16.625" width="0.75" height="0.75" fill="white"/>
<rect x="20.25" y="16.625" width="0.75" height="0.75" fill="white"/>
<rect x="9.75" y="17.375" width="0.75" height="0.75" fill="white"/>
<rect x="10.5" y="17.375" width="0.75" height="0.75" fill="white"/>
<rect x="11.25" y="17.375" width="0.75" height="0.75" fill="white"/>
<rect x="14.25" y="17.375" width="0.75" height="0.75" fill="white"/>
<rect x="15" y="17.375" width="0.75" height="0.75" fill="white"/>
<rect x="15.75" y="17.375" width="0.75" height="0.75" fill="white"/>
<rect x="16.5" y="17.375" width="0.75" height="0.75" fill="white"/>
<rect x="17.25" y="17.375" width="0.75" height="0.75" fill="white"/>
<rect x="18" y="17.375" width="0.75" height="0.75" fill="white"/>
<rect x="18.75" y="17.375" width="0.75" height="0.75" fill="white"/>
<rect x="19.5" y="17.375" width="0.75" height="0.75" fill="white"/>
<rect x="20.25" y="17.375" width="0.75" height="0.75" fill="white"/>
<rect x="9.75" y="18.125" width="0.75" height="0.75" fill="white"/>
<rect x="10.5" y="18.125" width="0.75" height="0.75" fill="white"/>
<rect x="15.75" y="18.125" width="0.75" height="0.75" fill="white"/>
<rect x="16.5" y="18.125" width="0.75" height="0.75" fill="white"/>
<rect x="17.25" y="18.125" width="0.75" height="0.75" fill="white"/>
<rect x="18" y="18.125" width="0.75" height="0.75" fill="white"/>
<rect x="18.75" y="18.125" width="0.75" height="0.75" fill="white"/>
<rect x="19.5" y="18.125" width="0.75" height="0.75" fill="white"/>
<rect x="20.25" y="18.125" width="0.75" height="0.75" fill="white"/>
<rect x="9.75" y="18.875" width="0.75" height="0.75" fill="white"/>
<rect x="16.5" y="18.875" width="0.75" height="0.75" fill="white"/>
<rect x="17.25" y="18.875" width="0.75" height="0.75" fill="white"/>
<rect x="18" y="18.875" width="0.75" height="0.75" fill="white"/>
<rect x="18.75" y="18.875" width="0.75" height="0.75" fill="white"/>
<rect x="19.5" y="18.875" width="0.75" height="0.75" fill="white"/>
<rect x="20.25" y="18.875" width="0.75" height="0.75" fill="white"/>
<rect x="18" y="19.625" width="0.75" height="0.75" fill="white"/>
<rect x="18.75" y="19.625" width="0.75" height="0.75" fill="white"/>
<rect x="19.5" y="19.625" width="0.75" height="0.75" fill="white"/>
<rect x="20.25" y="19.625" width="0.75" height="0.75" fill="white"/>
<rect x="18.75" y="20.375" width="0.75" height="0.75" fill="white"/>
<rect x="19.5" y="20.375" width="0.75" height="0.75" fill="white"/>
</svg>
