<svg width="24" height="20" viewBox="0 0 24 20" fill="none" xmlns="http://www.w3.org/2000/svg">
<rect x="14.4421" y="0.580322" width="0.697759" height="0.697759" fill="white"/>
<rect x="15.1399" y="0.580322" width="0.697759" height="0.697759" fill="white"/>
<rect x="15.8376" y="0.580322" width="0.697759" height="0.697759" fill="white"/>
<rect x="16.5354" y="0.580322" width="0.697759" height="0.697759" fill="white"/>
<rect x="17.2332" y="0.580322" width="0.697759" height="0.697759" fill="white"/>
<rect x="17.9309" y="0.580322" width="0.697759" height="0.697759" fill="white"/>
<rect x="22.8152" y="0.580322" width="0.697759" height="0.697759" fill="white"/>
<rect x="13.0466" y="1.27808" width="0.697759" height="0.697759" fill="white"/>
<rect x="13.7444" y="1.27808" width="0.697759" height="0.697759" fill="white"/>
<rect x="14.4421" y="1.27808" width="0.697759" height="0.697759" fill="white"/>
<rect x="15.1399" y="1.27808" width="0.697759" height="0.697759" fill="white"/>
<rect x="15.8376" y="1.27808" width="0.697759" height="0.697759" fill="white"/>
<rect x="16.5354" y="1.27808" width="0.697759" height="0.697759" fill="white"/>
<rect x="17.2332" y="1.27808" width="0.697759" height="0.697759" fill="white"/>
<rect x="17.9309" y="1.27808" width="0.697759" height="0.697759" fill="white"/>
<rect x="18.6287" y="1.27808" width="0.697759" height="0.697759" fill="white"/>
<rect x="19.3264" y="1.27808" width="0.697759" height="0.697759" fill="white"/>
<rect x="21.4197" y="1.27808" width="0.697759" height="0.697759" fill="white"/>
<rect x="22.1174" y="1.27808" width="0.697759" height="0.697759" fill="white"/>
<rect x="1.18457" y="1.97583" width="0.697759" height="0.697759" fill="white"/>
<rect x="1.88232" y="1.97583" width="0.697759" height="0.697759" fill="white"/>
<rect x="12.3489" y="1.97583" width="0.697759" height="0.697759" fill="white"/>
<rect x="13.0466" y="1.97583" width="0.697759" height="0.697759" fill="white"/>
<rect x="13.7444" y="1.97583" width="0.697759" height="0.697759" fill="white"/>
<rect x="14.4421" y="1.97583" width="0.697759" height="0.697759" fill="white"/>
<rect x="15.1399" y="1.97583" width="0.697759" height="0.697759" fill="white"/>
<rect x="15.8376" y="1.97583" width="0.697759" height="0.697759" fill="white"/>
<rect x="16.5354" y="1.97583" width="0.697759" height="0.697759" fill="white"/>
<rect x="17.2332" y="1.97583" width="0.697759" height="0.697759" fill="white"/>
<rect x="17.9309" y="1.97583" width="0.697759" height="0.697759" fill="white"/>
<rect x="18.6287" y="1.97583" width="0.697759" height="0.697759" fill="white"/>
<rect x="19.3264" y="1.97583" width="0.697759" height="0.697759" fill="white"/>
<rect x="20.0242" y="1.97583" width="0.697759" height="0.697759" fill="white"/>
<rect x="20.7219" y="1.97583" width="0.697759" height="0.697759" fill="white"/>
<rect x="21.4197" y="1.97583" width="0.697759" height="0.697759" fill="white"/>
<rect x="1.18457" y="2.67358" width="0.697759" height="0.697759" fill="white"/>
<rect x="1.88232" y="2.67358" width="0.697759" height="0.697759" fill="white"/>
<rect x="2.58008" y="2.67358" width="0.697759" height="0.697759" fill="white"/>
<rect x="12.3489" y="2.67358" width="0.697759" height="0.697759" fill="white"/>
<rect x="13.0466" y="2.67358" width="0.697759" height="0.697759" fill="white"/>
<rect x="13.7444" y="2.67358" width="0.697759" height="0.697759" fill="white"/>
<rect x="14.4421" y="2.67358" width="0.697759" height="0.697759" fill="white"/>
<rect x="15.1399" y="2.67358" width="0.697759" height="0.697759" fill="white"/>
<rect x="15.8376" y="2.67358" width="0.697759" height="0.697759" fill="white"/>
<rect x="16.5354" y="2.67358" width="0.697759" height="0.697759" fill="white"/>
<rect x="17.2332" y="2.67358" width="0.697759" height="0.697759" fill="white"/>
<rect x="17.9309" y="2.67358" width="0.697759" height="0.697759" fill="white"/>
<rect x="18.6287" y="2.67358" width="0.697759" height="0.697759" fill="white"/>
<rect x="19.3264" y="2.67358" width="0.697759" height="0.697759" fill="white"/>
<rect x="20.0242" y="2.67358" width="0.697759" height="0.697759" fill="white"/>
<rect x="20.7219" y="2.67358" width="0.697759" height="0.697759" fill="white"/>
<rect x="22.8152" y="2.67358" width="0.697759" height="0.697759" fill="white"/>
<rect x="1.18457" y="3.37134" width="0.697759" height="0.697759" fill="white"/>
<rect x="1.88232" y="3.37134" width="0.697759" height="0.697759" fill="white"/>
<rect x="2.58008" y="3.37134" width="0.697759" height="0.697759" fill="white"/>
<rect x="3.27783" y="3.37134" width="0.697759" height="0.697759" fill="white"/>
<rect x="3.97559" y="3.37134" width="0.697759" height="0.697759" fill="white"/>
<rect x="11.6511" y="3.37134" width="0.697759" height="0.697759" fill="white"/>
<rect x="12.3489" y="3.37134" width="0.697759" height="0.697759" fill="white"/>
<rect x="13.0466" y="3.37134" width="0.697759" height="0.697759" fill="white"/>
<rect x="13.7444" y="3.37134" width="0.697759" height="0.697759" fill="white"/>
<rect x="14.4421" y="3.37134" width="0.697759" height="0.697759" fill="white"/>
<rect x="15.1399" y="3.37134" width="0.697759" height="0.697759" fill="white"/>
<rect x="15.8376" y="3.37134" width="0.697759" height="0.697759" fill="white"/>
<rect x="16.5354" y="3.37134" width="0.697759" height="0.697759" fill="white"/>
<rect x="17.2332" y="3.37134" width="0.697759" height="0.697759" fill="white"/>
<rect x="17.9309" y="3.37134" width="0.697759" height="0.697759" fill="white"/>
<rect x="18.6287" y="3.37134" width="0.697759" height="0.697759" fill="white"/>
<rect x="19.3264" y="3.37134" width="0.697759" height="0.697759" fill="white"/>
<rect x="20.0242" y="3.37134" width="0.697759" height="0.697759" fill="white"/>
<rect x="20.7219" y="3.37134" width="0.697759" height="0.697759" fill="white"/>
<rect x="21.4197" y="3.37134" width="0.697759" height="0.697759" fill="white"/>
<rect x="22.1174" y="3.37134" width="0.697759" height="0.697759" fill="white"/>
<rect x="1.18457" y="4.06909" width="0.697759" height="0.697759" fill="white"/>
<rect x="1.88232" y="4.06909" width="0.697759" height="0.697759" fill="white"/>
<rect x="2.58008" y="4.06909" width="0.697759" height="0.697759" fill="white"/>
<rect x="3.27783" y="4.06909" width="0.697759" height="0.697759" fill="white"/>
<rect x="3.97559" y="4.06909" width="0.697759" height="0.697759" fill="white"/>
<rect x="4.67334" y="4.06909" width="0.697759" height="0.697759" fill="white"/>
<rect x="11.6511" y="4.06909" width="0.697759" height="0.697759" fill="white"/>
<rect x="12.3489" y="4.06909" width="0.697759" height="0.697759" fill="white"/>
<rect x="13.0466" y="4.06909" width="0.697759" height="0.697759" fill="white"/>
<rect x="13.7444" y="4.06909" width="0.697759" height="0.697759" fill="white"/>
<rect x="14.4421" y="4.06909" width="0.697759" height="0.697759" fill="white"/>
<rect x="15.1399" y="4.06909" width="0.697759" height="0.697759" fill="white"/>
<rect x="15.8376" y="4.06909" width="0.697759" height="0.697759" fill="white"/>
<rect x="16.5354" y="4.06909" width="0.697759" height="0.697759" fill="white"/>
<rect x="17.2332" y="4.06909" width="0.697759" height="0.697759" fill="white"/>
<rect x="17.9309" y="4.06909" width="0.697759" height="0.697759" fill="white"/>
<rect x="18.6287" y="4.06909" width="0.697759" height="0.697759" fill="white"/>
<rect x="19.3264" y="4.06909" width="0.697759" height="0.697759" fill="white"/>
<rect x="20.0242" y="4.06909" width="0.697759" height="0.697759" fill="white"/>
<rect x="20.7219" y="4.06909" width="0.697759" height="0.697759" fill="white"/>
<rect x="21.4197" y="4.06909" width="0.697759" height="0.697759" fill="white"/>
<rect x="1.18457" y="4.76685" width="0.697759" height="0.697759" fill="white"/>
<rect x="1.88232" y="4.76685" width="0.697759" height="0.697759" fill="white"/>
<rect x="2.58008" y="4.76685" width="0.697759" height="0.697759" fill="white"/>
<rect x="3.27783" y="4.76685" width="0.697759" height="0.697759" fill="white"/>
<rect x="3.97559" y="4.76685" width="0.697759" height="0.697759" fill="white"/>
<rect x="4.67334" y="4.76685" width="0.697759" height="0.697759" fill="white"/>
<rect x="5.37109" y="4.76685" width="0.697759" height="0.697759" fill="white"/>
<rect x="6.06885" y="4.76685" width="0.697759" height="0.697759" fill="white"/>
<rect x="11.6511" y="4.76685" width="0.697759" height="0.697759" fill="white"/>
<rect x="12.3489" y="4.76685" width="0.697759" height="0.697759" fill="white"/>
<rect x="13.0466" y="4.76685" width="0.697759" height="0.697759" fill="white"/>
<rect x="13.7444" y="4.76685" width="0.697759" height="0.697759" fill="white"/>
<rect x="14.4421" y="4.76685" width="0.697759" height="0.697759" fill="white"/>
<rect x="15.1399" y="4.76685" width="0.697759" height="0.697759" fill="white"/>
<rect x="15.8376" y="4.76685" width="0.697759" height="0.697759" fill="white"/>
<rect x="16.5354" y="4.76685" width="0.697759" height="0.697759" fill="white"/>
<rect x="17.2332" y="4.76685" width="0.697759" height="0.697759" fill="white"/>
<rect x="17.9309" y="4.76685" width="0.697759" height="0.697759" fill="white"/>
<rect x="18.6287" y="4.76685" width="0.697759" height="0.697759" fill="white"/>
<rect x="19.3264" y="4.76685" width="0.697759" height="0.697759" fill="white"/>
<rect x="20.0242" y="4.76685" width="0.697759" height="0.697759" fill="white"/>
<rect x="20.7219" y="4.76685" width="0.697759" height="0.697759" fill="white"/>
<rect x="1.88232" y="5.46466" width="0.697759" height="0.697759" fill="white"/>
<rect x="2.58008" y="5.46466" width="0.697759" height="0.697759" fill="white"/>
<rect x="3.27783" y="5.46466" width="0.697759" height="0.697759" fill="white"/>
<rect x="3.97559" y="5.46466" width="0.697759" height="0.697759" fill="white"/>
<rect x="4.67334" y="5.46466" width="0.697759" height="0.697759" fill="white"/>
<rect x="5.37109" y="5.46466" width="0.697759" height="0.697759" fill="white"/>
<rect x="6.06885" y="5.46466" width="0.697759" height="0.697759" fill="white"/>
<rect x="6.7666" y="5.46466" width="0.697759" height="0.697759" fill="white"/>
<rect x="7.46436" y="5.46466" width="0.697759" height="0.697759" fill="white"/>
<rect x="8.16211" y="5.46466" width="0.697759" height="0.697759" fill="white"/>
<rect x="11.6511" y="5.46466" width="0.697759" height="0.697759" fill="white"/>
<rect x="12.3489" y="5.46466" width="0.697759" height="0.697759" fill="white"/>
<rect x="13.0466" y="5.46466" width="0.697759" height="0.697759" fill="white"/>
<rect x="13.7444" y="5.46466" width="0.697759" height="0.697759" fill="white"/>
<rect x="14.4421" y="5.46466" width="0.697759" height="0.697759" fill="white"/>
<rect x="15.1399" y="5.46466" width="0.697759" height="0.697759" fill="white"/>
<rect x="15.8376" y="5.46466" width="0.697759" height="0.697759" fill="white"/>
<rect x="16.5354" y="5.46466" width="0.697759" height="0.697759" fill="white"/>
<rect x="17.2332" y="5.46466" width="0.697759" height="0.697759" fill="white"/>
<rect x="17.9309" y="5.46466" width="0.697759" height="0.697759" fill="white"/>
<rect x="18.6287" y="5.46466" width="0.697759" height="0.697759" fill="white"/>
<rect x="19.3264" y="5.46466" width="0.697759" height="0.697759" fill="white"/>
<rect x="20.0242" y="5.46466" width="0.697759" height="0.697759" fill="white"/>
<rect x="20.7219" y="5.46466" width="0.697759" height="0.697759" fill="white"/>
<rect x="1.88232" y="6.16241" width="0.697759" height="0.697759" fill="white"/>
<rect x="2.58008" y="6.16241" width="0.697759" height="0.697759" fill="white"/>
<rect x="3.27783" y="6.16241" width="0.697759" height="0.697759" fill="white"/>
<rect x="3.97559" y="6.16241" width="0.697759" height="0.697759" fill="white"/>
<rect x="4.67334" y="6.16241" width="0.697759" height="0.697759" fill="white"/>
<rect x="5.37109" y="6.16241" width="0.697759" height="0.697759" fill="white"/>
<rect x="6.06885" y="6.16241" width="0.697759" height="0.697759" fill="white"/>
<rect x="6.7666" y="6.16241" width="0.697759" height="0.697759" fill="white"/>
<rect x="7.46436" y="6.16241" width="0.697759" height="0.697759" fill="white"/>
<rect x="8.16211" y="6.16241" width="0.697759" height="0.697759" fill="white"/>
<rect x="8.85986" y="6.16241" width="0.697759" height="0.697759" fill="white"/>
<rect x="9.55762" y="6.16241" width="0.697759" height="0.697759" fill="white"/>
<rect x="10.2556" y="6.16241" width="0.697759" height="0.697759" fill="white"/>
<rect x="10.9534" y="6.16241" width="0.697759" height="0.697759" fill="white"/>
<rect x="11.6511" y="6.16241" width="0.697759" height="0.697759" fill="white"/>
<rect x="12.3489" y="6.16241" width="0.697759" height="0.697759" fill="white"/>
<rect x="13.0466" y="6.16241" width="0.697759" height="0.697759" fill="white"/>
<rect x="13.7444" y="6.16241" width="0.697759" height="0.697759" fill="white"/>
<rect x="14.4421" y="6.16241" width="0.697759" height="0.697759" fill="white"/>
<rect x="15.1399" y="6.16241" width="0.697759" height="0.697759" fill="white"/>
<rect x="15.8376" y="6.16241" width="0.697759" height="0.697759" fill="white"/>
<rect x="16.5354" y="6.16241" width="0.697759" height="0.697759" fill="white"/>
<rect x="17.2332" y="6.16241" width="0.697759" height="0.697759" fill="white"/>
<rect x="17.9309" y="6.16241" width="0.697759" height="0.697759" fill="white"/>
<rect x="18.6287" y="6.16241" width="0.697759" height="0.697759" fill="white"/>
<rect x="19.3264" y="6.16241" width="0.697759" height="0.697759" fill="white"/>
<rect x="20.0242" y="6.16241" width="0.697759" height="0.697759" fill="white"/>
<rect x="20.7219" y="6.16241" width="0.697759" height="0.697759" fill="white"/>
<rect x="2.58008" y="6.86017" width="0.697759" height="0.697759" fill="white"/>
<rect x="3.27783" y="6.86017" width="0.697759" height="0.697759" fill="white"/>
<rect x="3.97559" y="6.86017" width="0.697759" height="0.697759" fill="white"/>
<rect x="4.67334" y="6.86017" width="0.697759" height="0.697759" fill="white"/>
<rect x="5.37109" y="6.86017" width="0.697759" height="0.697759" fill="white"/>
<rect x="6.06885" y="6.86017" width="0.697759" height="0.697759" fill="white"/>
<rect x="6.7666" y="6.86017" width="0.697759" height="0.697759" fill="white"/>
<rect x="7.46436" y="6.86017" width="0.697759" height="0.697759" fill="white"/>
<rect x="8.16211" y="6.86017" width="0.697759" height="0.697759" fill="white"/>
<rect x="8.85986" y="6.86017" width="0.697759" height="0.697759" fill="white"/>
<rect x="9.55762" y="6.86017" width="0.697759" height="0.697759" fill="white"/>
<rect x="10.2556" y="6.86017" width="0.697759" height="0.697759" fill="white"/>
<rect x="10.9534" y="6.86017" width="0.697759" height="0.697759" fill="white"/>
<rect x="11.6511" y="6.86017" width="0.697759" height="0.697759" fill="white"/>
<rect x="12.3489" y="6.86017" width="0.697759" height="0.697759" fill="white"/>
<rect x="13.0466" y="6.86017" width="0.697759" height="0.697759" fill="white"/>
<rect x="13.7444" y="6.86017" width="0.697759" height="0.697759" fill="white"/>
<rect x="14.4421" y="6.86017" width="0.697759" height="0.697759" fill="white"/>
<rect x="15.1399" y="6.86017" width="0.697759" height="0.697759" fill="white"/>
<rect x="15.8376" y="6.86017" width="0.697759" height="0.697759" fill="white"/>
<rect x="16.5354" y="6.86017" width="0.697759" height="0.697759" fill="white"/>
<rect x="17.2332" y="6.86017" width="0.697759" height="0.697759" fill="white"/>
<rect x="17.9309" y="6.86017" width="0.697759" height="0.697759" fill="white"/>
<rect x="18.6287" y="6.86017" width="0.697759" height="0.697759" fill="white"/>
<rect x="19.3264" y="6.86017" width="0.697759" height="0.697759" fill="white"/>
<rect x="20.0242" y="6.86017" width="0.697759" height="0.697759" fill="white"/>
<rect x="20.7219" y="6.86017" width="0.697759" height="0.697759" fill="white"/>
<rect x="1.18457" y="7.55792" width="0.697759" height="0.697759" fill="white"/>
<rect x="1.88232" y="7.55792" width="0.697759" height="0.697759" fill="white"/>
<rect x="2.58008" y="7.55792" width="0.697759" height="0.697759" fill="white"/>
<rect x="3.27783" y="7.55792" width="0.697759" height="0.697759" fill="white"/>
<rect x="3.97559" y="7.55792" width="0.697759" height="0.697759" fill="white"/>
<rect x="4.67334" y="7.55792" width="0.697759" height="0.697759" fill="white"/>
<rect x="5.37109" y="7.55792" width="0.697759" height="0.697759" fill="white"/>
<rect x="6.06885" y="7.55792" width="0.697759" height="0.697759" fill="white"/>
<rect x="6.7666" y="7.55792" width="0.697759" height="0.697759" fill="white"/>
<rect x="7.46436" y="7.55792" width="0.697759" height="0.697759" fill="white"/>
<rect x="8.16211" y="7.55792" width="0.697759" height="0.697759" fill="white"/>
<rect x="8.85986" y="7.55792" width="0.697759" height="0.697759" fill="white"/>
<rect x="9.55762" y="7.55792" width="0.697759" height="0.697759" fill="white"/>
<rect x="10.2556" y="7.55792" width="0.697759" height="0.697759" fill="white"/>
<rect x="10.9534" y="7.55792" width="0.697759" height="0.697759" fill="white"/>
<rect x="11.6511" y="7.55792" width="0.697759" height="0.697759" fill="white"/>
<rect x="12.3489" y="7.55792" width="0.697759" height="0.697759" fill="white"/>
<rect x="13.0466" y="7.55792" width="0.697759" height="0.697759" fill="white"/>
<rect x="13.7444" y="7.55792" width="0.697759" height="0.697759" fill="white"/>
<rect x="14.4421" y="7.55792" width="0.697759" height="0.697759" fill="white"/>
<rect x="15.1399" y="7.55792" width="0.697759" height="0.697759" fill="white"/>
<rect x="15.8376" y="7.55792" width="0.697759" height="0.697759" fill="white"/>
<rect x="16.5354" y="7.55792" width="0.697759" height="0.697759" fill="white"/>
<rect x="17.2332" y="7.55792" width="0.697759" height="0.697759" fill="white"/>
<rect x="17.9309" y="7.55792" width="0.697759" height="0.697759" fill="white"/>
<rect x="18.6287" y="7.55792" width="0.697759" height="0.697759" fill="white"/>
<rect x="19.3264" y="7.55792" width="0.697759" height="0.697759" fill="white"/>
<rect x="20.0242" y="7.55792" width="0.697759" height="0.697759" fill="white"/>
<rect x="20.7219" y="7.55792" width="0.697759" height="0.697759" fill="white"/>
<rect x="1.18457" y="8.25568" width="0.697759" height="0.697759" fill="white"/>
<rect x="1.88232" y="8.25568" width="0.697759" height="0.697759" fill="white"/>
<rect x="2.58008" y="8.25568" width="0.697759" height="0.697759" fill="white"/>
<rect x="3.27783" y="8.25568" width="0.697759" height="0.697759" fill="white"/>
<rect x="3.97559" y="8.25568" width="0.697759" height="0.697759" fill="white"/>
<rect x="4.67334" y="8.25568" width="0.697759" height="0.697759" fill="white"/>
<rect x="5.37109" y="8.25568" width="0.697759" height="0.697759" fill="white"/>
<rect x="6.06885" y="8.25568" width="0.697759" height="0.697759" fill="white"/>
<rect x="6.7666" y="8.25568" width="0.697759" height="0.697759" fill="white"/>
<rect x="7.46436" y="8.25568" width="0.697759" height="0.697759" fill="white"/>
<rect x="8.16211" y="8.25568" width="0.697759" height="0.697759" fill="white"/>
<rect x="8.85986" y="8.25568" width="0.697759" height="0.697759" fill="white"/>
<rect x="9.55762" y="8.25568" width="0.697759" height="0.697759" fill="white"/>
<rect x="10.2556" y="8.25568" width="0.697759" height="0.697759" fill="white"/>
<rect x="10.9534" y="8.25568" width="0.697759" height="0.697759" fill="white"/>
<rect x="11.6511" y="8.25568" width="0.697759" height="0.697759" fill="white"/>
<rect x="12.3489" y="8.25568" width="0.697759" height="0.697759" fill="white"/>
<rect x="13.0466" y="8.25568" width="0.697759" height="0.697759" fill="white"/>
<rect x="13.7444" y="8.25568" width="0.697759" height="0.697759" fill="white"/>
<rect x="14.4421" y="8.25568" width="0.697759" height="0.697759" fill="white"/>
<rect x="15.1399" y="8.25568" width="0.697759" height="0.697759" fill="white"/>
<rect x="15.8376" y="8.25568" width="0.697759" height="0.697759" fill="white"/>
<rect x="16.5354" y="8.25568" width="0.697759" height="0.697759" fill="white"/>
<rect x="17.2332" y="8.25568" width="0.697759" height="0.697759" fill="white"/>
<rect x="17.9309" y="8.25568" width="0.697759" height="0.697759" fill="white"/>
<rect x="18.6287" y="8.25568" width="0.697759" height="0.697759" fill="white"/>
<rect x="19.3264" y="8.25568" width="0.697759" height="0.697759" fill="white"/>
<rect x="20.0242" y="8.25568" width="0.697759" height="0.697759" fill="white"/>
<rect x="20.7219" y="8.25568" width="0.697759" height="0.697759" fill="white"/>
<rect x="1.18457" y="8.95343" width="0.697759" height="0.697759" fill="white"/>
<rect x="1.88232" y="8.95343" width="0.697759" height="0.697759" fill="white"/>
<rect x="2.58008" y="8.95343" width="0.697759" height="0.697759" fill="white"/>
<rect x="3.27783" y="8.95343" width="0.697759" height="0.697759" fill="white"/>
<rect x="3.97559" y="8.95343" width="0.697759" height="0.697759" fill="white"/>
<rect x="4.67334" y="8.95343" width="0.697759" height="0.697759" fill="white"/>
<rect x="5.37109" y="8.95343" width="0.697759" height="0.697759" fill="white"/>
<rect x="6.06885" y="8.95343" width="0.697759" height="0.697759" fill="white"/>
<rect x="6.7666" y="8.95343" width="0.697759" height="0.697759" fill="white"/>
<rect x="7.46436" y="8.95343" width="0.697759" height="0.697759" fill="white"/>
<rect x="8.16211" y="8.95343" width="0.697759" height="0.697759" fill="white"/>
<rect x="8.85986" y="8.95343" width="0.697759" height="0.697759" fill="white"/>
<rect x="9.55762" y="8.95343" width="0.697759" height="0.697759" fill="white"/>
<rect x="10.2556" y="8.95343" width="0.697759" height="0.697759" fill="white"/>
<rect x="10.9534" y="8.95343" width="0.697759" height="0.697759" fill="white"/>
<rect x="11.6511" y="8.95343" width="0.697759" height="0.697759" fill="white"/>
<rect x="12.3489" y="8.95343" width="0.697759" height="0.697759" fill="white"/>
<rect x="13.0466" y="8.95343" width="0.697759" height="0.697759" fill="white"/>
<rect x="13.7444" y="8.95343" width="0.697759" height="0.697759" fill="white"/>
<rect x="14.4421" y="8.95343" width="0.697759" height="0.697759" fill="white"/>
<rect x="15.1399" y="8.95343" width="0.697759" height="0.697759" fill="white"/>
<rect x="15.8376" y="8.95343" width="0.697759" height="0.697759" fill="white"/>
<rect x="16.5354" y="8.95343" width="0.697759" height="0.697759" fill="white"/>
<rect x="17.2332" y="8.95343" width="0.697759" height="0.697759" fill="white"/>
<rect x="17.9309" y="8.95343" width="0.697759" height="0.697759" fill="white"/>
<rect x="18.6287" y="8.95343" width="0.697759" height="0.697759" fill="white"/>
<rect x="19.3264" y="8.95343" width="0.697759" height="0.697759" fill="white"/>
<rect x="20.0242" y="8.95343" width="0.697759" height="0.697759" fill="white"/>
<rect x="1.88232" y="9.65118" width="0.697759" height="0.697759" fill="white"/>
<rect x="2.58008" y="9.65118" width="0.697759" height="0.697759" fill="white"/>
<rect x="3.27783" y="9.65118" width="0.697759" height="0.697759" fill="white"/>
<rect x="3.97559" y="9.65118" width="0.697759" height="0.697759" fill="white"/>
<rect x="4.67334" y="9.65118" width="0.697759" height="0.697759" fill="white"/>
<rect x="5.37109" y="9.65118" width="0.697759" height="0.697759" fill="white"/>
<rect x="6.06885" y="9.65118" width="0.697759" height="0.697759" fill="white"/>
<rect x="6.7666" y="9.65118" width="0.697759" height="0.697759" fill="white"/>
<rect x="7.46436" y="9.65118" width="0.697759" height="0.697759" fill="white"/>
<rect x="8.16211" y="9.65118" width="0.697759" height="0.697759" fill="white"/>
<rect x="8.85986" y="9.65118" width="0.697759" height="0.697759" fill="white"/>
<rect x="9.55762" y="9.65118" width="0.697759" height="0.697759" fill="white"/>
<rect x="10.2556" y="9.65118" width="0.697759" height="0.697759" fill="white"/>
<rect x="10.9534" y="9.65118" width="0.697759" height="0.697759" fill="white"/>
<rect x="11.6511" y="9.65118" width="0.697759" height="0.697759" fill="white"/>
<rect x="12.3489" y="9.65118" width="0.697759" height="0.697759" fill="white"/>
<rect x="13.0466" y="9.65118" width="0.697759" height="0.697759" fill="white"/>
<rect x="13.7444" y="9.65118" width="0.697759" height="0.697759" fill="white"/>
<rect x="14.4421" y="9.65118" width="0.697759" height="0.697759" fill="white"/>
<rect x="15.1399" y="9.65118" width="0.697759" height="0.697759" fill="white"/>
<rect x="15.8376" y="9.65118" width="0.697759" height="0.697759" fill="white"/>
<rect x="16.5354" y="9.65118" width="0.697759" height="0.697759" fill="white"/>
<rect x="17.2332" y="9.65118" width="0.697759" height="0.697759" fill="white"/>
<rect x="17.9309" y="9.65118" width="0.697759" height="0.697759" fill="white"/>
<rect x="18.6287" y="9.65118" width="0.697759" height="0.697759" fill="white"/>
<rect x="19.3264" y="9.65118" width="0.697759" height="0.697759" fill="white"/>
<rect x="20.0242" y="9.65118" width="0.697759" height="0.697759" fill="white"/>
<rect x="2.58008" y="10.3489" width="0.697759" height="0.697759" fill="white"/>
<rect x="3.27783" y="10.3489" width="0.697759" height="0.697759" fill="white"/>
<rect x="3.97559" y="10.3489" width="0.697759" height="0.697759" fill="white"/>
<rect x="4.67334" y="10.3489" width="0.697759" height="0.697759" fill="white"/>
<rect x="5.37109" y="10.3489" width="0.697759" height="0.697759" fill="white"/>
<rect x="6.06885" y="10.3489" width="0.697759" height="0.697759" fill="white"/>
<rect x="6.7666" y="10.3489" width="0.697759" height="0.697759" fill="white"/>
<rect x="7.46436" y="10.3489" width="0.697759" height="0.697759" fill="white"/>
<rect x="8.16211" y="10.3489" width="0.697759" height="0.697759" fill="white"/>
<rect x="8.85986" y="10.3489" width="0.697759" height="0.697759" fill="white"/>
<rect x="9.55762" y="10.3489" width="0.697759" height="0.697759" fill="white"/>
<rect x="10.2556" y="10.3489" width="0.697759" height="0.697759" fill="white"/>
<rect x="10.9534" y="10.3489" width="0.697759" height="0.697759" fill="white"/>
<rect x="11.6511" y="10.3489" width="0.697759" height="0.697759" fill="white"/>
<rect x="12.3489" y="10.3489" width="0.697759" height="0.697759" fill="white"/>
<rect x="13.0466" y="10.3489" width="0.697759" height="0.697759" fill="white"/>
<rect x="13.7444" y="10.3489" width="0.697759" height="0.697759" fill="white"/>
<rect x="14.4421" y="10.3489" width="0.697759" height="0.697759" fill="white"/>
<rect x="15.1399" y="10.3489" width="0.697759" height="0.697759" fill="white"/>
<rect x="15.8376" y="10.3489" width="0.697759" height="0.697759" fill="white"/>
<rect x="16.5354" y="10.3489" width="0.697759" height="0.697759" fill="white"/>
<rect x="17.2332" y="10.3489" width="0.697759" height="0.697759" fill="white"/>
<rect x="17.9309" y="10.3489" width="0.697759" height="0.697759" fill="white"/>
<rect x="18.6287" y="10.3489" width="0.697759" height="0.697759" fill="white"/>
<rect x="19.3264" y="10.3489" width="0.697759" height="0.697759" fill="white"/>
<rect x="20.0242" y="10.3489" width="0.697759" height="0.697759" fill="white"/>
<rect x="3.27783" y="11.0467" width="0.697759" height="0.697759" fill="white"/>
<rect x="3.97559" y="11.0467" width="0.697759" height="0.697759" fill="white"/>
<rect x="4.67334" y="11.0467" width="0.697759" height="0.697759" fill="white"/>
<rect x="5.37109" y="11.0467" width="0.697759" height="0.697759" fill="white"/>
<rect x="6.06885" y="11.0467" width="0.697759" height="0.697759" fill="white"/>
<rect x="6.7666" y="11.0467" width="0.697759" height="0.697759" fill="white"/>
<rect x="7.46436" y="11.0467" width="0.697759" height="0.697759" fill="white"/>
<rect x="8.16211" y="11.0467" width="0.697759" height="0.697759" fill="white"/>
<rect x="8.85986" y="11.0467" width="0.697759" height="0.697759" fill="white"/>
<rect x="9.55762" y="11.0467" width="0.697759" height="0.697759" fill="white"/>
<rect x="10.2556" y="11.0467" width="0.697759" height="0.697759" fill="white"/>
<rect x="10.9534" y="11.0467" width="0.697759" height="0.697759" fill="white"/>
<rect x="11.6511" y="11.0467" width="0.697759" height="0.697759" fill="white"/>
<rect x="12.3489" y="11.0467" width="0.697759" height="0.697759" fill="white"/>
<rect x="13.0466" y="11.0467" width="0.697759" height="0.697759" fill="white"/>
<rect x="13.7444" y="11.0467" width="0.697759" height="0.697759" fill="white"/>
<rect x="14.4421" y="11.0467" width="0.697759" height="0.697759" fill="white"/>
<rect x="15.1399" y="11.0467" width="0.697759" height="0.697759" fill="white"/>
<rect x="15.8376" y="11.0467" width="0.697759" height="0.697759" fill="white"/>
<rect x="16.5354" y="11.0467" width="0.697759" height="0.697759" fill="white"/>
<rect x="17.2332" y="11.0467" width="0.697759" height="0.697759" fill="white"/>
<rect x="17.9309" y="11.0467" width="0.697759" height="0.697759" fill="white"/>
<rect x="18.6287" y="11.0467" width="0.697759" height="0.697759" fill="white"/>
<rect x="19.3264" y="11.0467" width="0.697759" height="0.697759" fill="white"/>
<rect x="2.58008" y="11.7444" width="0.697759" height="0.697759" fill="white"/>
<rect x="4.67334" y="11.7444" width="0.697759" height="0.697759" fill="white"/>
<rect x="5.37109" y="11.7444" width="0.697759" height="0.697759" fill="white"/>
<rect x="6.06885" y="11.7444" width="0.697759" height="0.697759" fill="white"/>
<rect x="6.7666" y="11.7444" width="0.697759" height="0.697759" fill="white"/>
<rect x="7.46436" y="11.7444" width="0.697759" height="0.697759" fill="white"/>
<rect x="8.16211" y="11.7444" width="0.697759" height="0.697759" fill="white"/>
<rect x="8.85986" y="11.7444" width="0.697759" height="0.697759" fill="white"/>
<rect x="9.55762" y="11.7444" width="0.697759" height="0.697759" fill="white"/>
<rect x="10.2556" y="11.7444" width="0.697759" height="0.697759" fill="white"/>
<rect x="10.9534" y="11.7444" width="0.697759" height="0.697759" fill="white"/>
<rect x="11.6511" y="11.7444" width="0.697759" height="0.697759" fill="white"/>
<rect x="12.3489" y="11.7444" width="0.697759" height="0.697759" fill="white"/>
<rect x="13.0466" y="11.7444" width="0.697759" height="0.697759" fill="white"/>
<rect x="13.7444" y="11.7444" width="0.697759" height="0.697759" fill="white"/>
<rect x="14.4421" y="11.7444" width="0.697759" height="0.697759" fill="white"/>
<rect x="15.1399" y="11.7444" width="0.697759" height="0.697759" fill="white"/>
<rect x="15.8376" y="11.7444" width="0.697759" height="0.697759" fill="white"/>
<rect x="16.5354" y="11.7444" width="0.697759" height="0.697759" fill="white"/>
<rect x="17.2332" y="11.7444" width="0.697759" height="0.697759" fill="white"/>
<rect x="17.9309" y="11.7444" width="0.697759" height="0.697759" fill="white"/>
<rect x="18.6287" y="11.7444" width="0.697759" height="0.697759" fill="white"/>
<rect x="19.3264" y="11.7444" width="0.697759" height="0.697759" fill="white"/>
<rect x="3.27783" y="12.4422" width="0.697759" height="0.697759" fill="white"/>
<rect x="3.97559" y="12.4422" width="0.697759" height="0.697759" fill="white"/>
<rect x="4.67334" y="12.4422" width="0.697759" height="0.697759" fill="white"/>
<rect x="5.37109" y="12.4422" width="0.697759" height="0.697759" fill="white"/>
<rect x="6.06885" y="12.4422" width="0.697759" height="0.697759" fill="white"/>
<rect x="6.7666" y="12.4422" width="0.697759" height="0.697759" fill="white"/>
<rect x="7.46436" y="12.4422" width="0.697759" height="0.697759" fill="white"/>
<rect x="8.16211" y="12.4422" width="0.697759" height="0.697759" fill="white"/>
<rect x="8.85986" y="12.4422" width="0.697759" height="0.697759" fill="white"/>
<rect x="9.55762" y="12.4422" width="0.697759" height="0.697759" fill="white"/>
<rect x="10.2556" y="12.4422" width="0.697759" height="0.697759" fill="white"/>
<rect x="10.9534" y="12.4422" width="0.697759" height="0.697759" fill="white"/>
<rect x="11.6511" y="12.4422" width="0.697759" height="0.697759" fill="white"/>
<rect x="12.3489" y="12.4422" width="0.697759" height="0.697759" fill="white"/>
<rect x="13.0466" y="12.4422" width="0.697759" height="0.697759" fill="white"/>
<rect x="13.7444" y="12.4422" width="0.697759" height="0.697759" fill="white"/>
<rect x="14.4421" y="12.4422" width="0.697759" height="0.697759" fill="white"/>
<rect x="15.1399" y="12.4422" width="0.697759" height="0.697759" fill="white"/>
<rect x="15.8376" y="12.4422" width="0.697759" height="0.697759" fill="white"/>
<rect x="16.5354" y="12.4422" width="0.697759" height="0.697759" fill="white"/>
<rect x="17.2332" y="12.4422" width="0.697759" height="0.697759" fill="white"/>
<rect x="17.9309" y="12.4422" width="0.697759" height="0.697759" fill="white"/>
<rect x="18.6287" y="12.4422" width="0.697759" height="0.697759" fill="white"/>
<rect x="3.27783" y="13.14" width="0.697759" height="0.697759" fill="white"/>
<rect x="3.97559" y="13.14" width="0.697759" height="0.697759" fill="white"/>
<rect x="4.67334" y="13.14" width="0.697759" height="0.697759" fill="white"/>
<rect x="5.37109" y="13.14" width="0.697759" height="0.697759" fill="white"/>
<rect x="6.06885" y="13.14" width="0.697759" height="0.697759" fill="white"/>
<rect x="6.7666" y="13.14" width="0.697759" height="0.697759" fill="white"/>
<rect x="7.46436" y="13.14" width="0.697759" height="0.697759" fill="white"/>
<rect x="8.16211" y="13.14" width="0.697759" height="0.697759" fill="white"/>
<rect x="8.85986" y="13.14" width="0.697759" height="0.697759" fill="white"/>
<rect x="9.55762" y="13.14" width="0.697759" height="0.697759" fill="white"/>
<rect x="10.2556" y="13.14" width="0.697759" height="0.697759" fill="white"/>
<rect x="10.9534" y="13.14" width="0.697759" height="0.697759" fill="white"/>
<rect x="11.6511" y="13.14" width="0.697759" height="0.697759" fill="white"/>
<rect x="12.3489" y="13.14" width="0.697759" height="0.697759" fill="white"/>
<rect x="13.0466" y="13.14" width="0.697759" height="0.697759" fill="white"/>
<rect x="13.7444" y="13.14" width="0.697759" height="0.697759" fill="white"/>
<rect x="14.4421" y="13.14" width="0.697759" height="0.697759" fill="white"/>
<rect x="15.1399" y="13.14" width="0.697759" height="0.697759" fill="white"/>
<rect x="15.8376" y="13.14" width="0.697759" height="0.697759" fill="white"/>
<rect x="16.5354" y="13.14" width="0.697759" height="0.697759" fill="white"/>
<rect x="17.2332" y="13.14" width="0.697759" height="0.697759" fill="white"/>
<rect x="17.9309" y="13.14" width="0.697759" height="0.697759" fill="white"/>
<rect x="18.6287" y="13.14" width="0.697759" height="0.697759" fill="white"/>
<rect x="3.97559" y="13.8377" width="0.697759" height="0.697759" fill="white"/>
<rect x="4.67334" y="13.8377" width="0.697759" height="0.697759" fill="white"/>
<rect x="5.37109" y="13.8377" width="0.697759" height="0.697759" fill="white"/>
<rect x="6.06885" y="13.8377" width="0.697759" height="0.697759" fill="white"/>
<rect x="6.7666" y="13.8377" width="0.697759" height="0.697759" fill="white"/>
<rect x="7.46436" y="13.8377" width="0.697759" height="0.697759" fill="white"/>
<rect x="8.16211" y="13.8377" width="0.697759" height="0.697759" fill="white"/>
<rect x="8.85986" y="13.8377" width="0.697759" height="0.697759" fill="white"/>
<rect x="9.55762" y="13.8377" width="0.697759" height="0.697759" fill="white"/>
<rect x="10.2556" y="13.8377" width="0.697759" height="0.697759" fill="white"/>
<rect x="10.9534" y="13.8377" width="0.697759" height="0.697759" fill="white"/>
<rect x="11.6511" y="13.8377" width="0.697759" height="0.697759" fill="white"/>
<rect x="12.3489" y="13.8377" width="0.697759" height="0.697759" fill="white"/>
<rect x="13.0466" y="13.8377" width="0.697759" height="0.697759" fill="white"/>
<rect x="13.7444" y="13.8377" width="0.697759" height="0.697759" fill="white"/>
<rect x="14.4421" y="13.8377" width="0.697759" height="0.697759" fill="white"/>
<rect x="15.1399" y="13.8377" width="0.697759" height="0.697759" fill="white"/>
<rect x="15.8376" y="13.8377" width="0.697759" height="0.697759" fill="white"/>
<rect x="16.5354" y="13.8377" width="0.697759" height="0.697759" fill="white"/>
<rect x="17.2332" y="13.8377" width="0.697759" height="0.697759" fill="white"/>
<rect x="17.9309" y="13.8377" width="0.697759" height="0.697759" fill="white"/>
<rect x="5.37109" y="14.5355" width="0.697759" height="0.697759" fill="white"/>
<rect x="6.06885" y="14.5355" width="0.697759" height="0.697759" fill="white"/>
<rect x="6.7666" y="14.5355" width="0.697759" height="0.697759" fill="white"/>
<rect x="7.46436" y="14.5355" width="0.697759" height="0.697759" fill="white"/>
<rect x="8.16211" y="14.5355" width="0.697759" height="0.697759" fill="white"/>
<rect x="8.85986" y="14.5355" width="0.697759" height="0.697759" fill="white"/>
<rect x="9.55762" y="14.5355" width="0.697759" height="0.697759" fill="white"/>
<rect x="10.2556" y="14.5355" width="0.697759" height="0.697759" fill="white"/>
<rect x="10.9534" y="14.5355" width="0.697759" height="0.697759" fill="white"/>
<rect x="11.6511" y="14.5355" width="0.697759" height="0.697759" fill="white"/>
<rect x="12.3489" y="14.5355" width="0.697759" height="0.697759" fill="white"/>
<rect x="13.0466" y="14.5355" width="0.697759" height="0.697759" fill="white"/>
<rect x="13.7444" y="14.5355" width="0.697759" height="0.697759" fill="white"/>
<rect x="14.4421" y="14.5355" width="0.697759" height="0.697759" fill="white"/>
<rect x="15.1399" y="14.5355" width="0.697759" height="0.697759" fill="white"/>
<rect x="15.8376" y="14.5355" width="0.697759" height="0.697759" fill="white"/>
<rect x="16.5354" y="14.5355" width="0.697759" height="0.697759" fill="white"/>
<rect x="17.2332" y="14.5355" width="0.697759" height="0.697759" fill="white"/>
<rect x="7.46436" y="15.2333" width="0.697759" height="0.697759" fill="white"/>
<rect x="8.16211" y="15.2333" width="0.697759" height="0.697759" fill="white"/>
<rect x="8.85986" y="15.2333" width="0.697759" height="0.697759" fill="white"/>
<rect x="9.55762" y="15.2333" width="0.697759" height="0.697759" fill="white"/>
<rect x="10.2556" y="15.2333" width="0.697759" height="0.697759" fill="white"/>
<rect x="10.9534" y="15.2333" width="0.697759" height="0.697759" fill="white"/>
<rect x="11.6511" y="15.2333" width="0.697759" height="0.697759" fill="white"/>
<rect x="12.3489" y="15.2333" width="0.697759" height="0.697759" fill="white"/>
<rect x="13.0466" y="15.2333" width="0.697759" height="0.697759" fill="white"/>
<rect x="13.7444" y="15.2333" width="0.697759" height="0.697759" fill="white"/>
<rect x="14.4421" y="15.2333" width="0.697759" height="0.697759" fill="white"/>
<rect x="15.1399" y="15.2333" width="0.697759" height="0.697759" fill="white"/>
<rect x="15.8376" y="15.2333" width="0.697759" height="0.697759" fill="white"/>
<rect x="16.5354" y="15.2333" width="0.697759" height="0.697759" fill="white"/>
<rect x="17.2332" y="15.2333" width="0.697759" height="0.697759" fill="white"/>
<rect x="6.06885" y="15.931" width="0.697759" height="0.697759" fill="white"/>
<rect x="6.7666" y="15.931" width="0.697759" height="0.697759" fill="white"/>
<rect x="7.46436" y="15.931" width="0.697759" height="0.697759" fill="white"/>
<rect x="8.16211" y="15.931" width="0.697759" height="0.697759" fill="white"/>
<rect x="8.85986" y="15.931" width="0.697759" height="0.697759" fill="white"/>
<rect x="9.55762" y="15.931" width="0.697759" height="0.697759" fill="white"/>
<rect x="10.2556" y="15.931" width="0.697759" height="0.697759" fill="white"/>
<rect x="10.9534" y="15.931" width="0.697759" height="0.697759" fill="white"/>
<rect x="11.6511" y="15.931" width="0.697759" height="0.697759" fill="white"/>
<rect x="12.3489" y="15.931" width="0.697759" height="0.697759" fill="white"/>
<rect x="13.0466" y="15.931" width="0.697759" height="0.697759" fill="white"/>
<rect x="13.7444" y="15.931" width="0.697759" height="0.697759" fill="white"/>
<rect x="14.4421" y="15.931" width="0.697759" height="0.697759" fill="white"/>
<rect x="15.1399" y="15.931" width="0.697759" height="0.697759" fill="white"/>
<rect x="15.8376" y="15.931" width="0.697759" height="0.697759" fill="white"/>
<rect x="4.67334" y="16.6288" width="0.697759" height="0.697759" fill="white"/>
<rect x="5.37109" y="16.6288" width="0.697759" height="0.697759" fill="white"/>
<rect x="6.06885" y="16.6288" width="0.697759" height="0.697759" fill="white"/>
<rect x="6.7666" y="16.6288" width="0.697759" height="0.697759" fill="white"/>
<rect x="7.46436" y="16.6288" width="0.697759" height="0.697759" fill="white"/>
<rect x="8.16211" y="16.6288" width="0.697759" height="0.697759" fill="white"/>
<rect x="8.85986" y="16.6288" width="0.697759" height="0.697759" fill="white"/>
<rect x="9.55762" y="16.6288" width="0.697759" height="0.697759" fill="white"/>
<rect x="10.2556" y="16.6288" width="0.697759" height="0.697759" fill="white"/>
<rect x="10.9534" y="16.6288" width="0.697759" height="0.697759" fill="white"/>
<rect x="11.6511" y="16.6288" width="0.697759" height="0.697759" fill="white"/>
<rect x="12.3489" y="16.6288" width="0.697759" height="0.697759" fill="white"/>
<rect x="13.0466" y="16.6288" width="0.697759" height="0.697759" fill="white"/>
<rect x="13.7444" y="16.6288" width="0.697759" height="0.697759" fill="white"/>
<rect x="14.4421" y="16.6288" width="0.697759" height="0.697759" fill="white"/>
<rect x="15.1399" y="16.6288" width="0.697759" height="0.697759" fill="white"/>
<rect x="0.486816" y="17.3265" width="0.697759" height="0.697759" fill="white"/>
<rect x="1.18457" y="17.3265" width="0.697759" height="0.697759" fill="white"/>
<rect x="1.88232" y="17.3265" width="0.697759" height="0.697759" fill="white"/>
<rect x="2.58008" y="17.3265" width="0.697759" height="0.697759" fill="white"/>
<rect x="3.27783" y="17.3265" width="0.697759" height="0.697759" fill="white"/>
<rect x="3.97559" y="17.3265" width="0.697759" height="0.697759" fill="white"/>
<rect x="4.67334" y="17.3265" width="0.697759" height="0.697759" fill="white"/>
<rect x="5.37109" y="17.3265" width="0.697759" height="0.697759" fill="white"/>
<rect x="6.06885" y="17.3265" width="0.697759" height="0.697759" fill="white"/>
<rect x="6.7666" y="17.3265" width="0.697759" height="0.697759" fill="white"/>
<rect x="7.46436" y="17.3265" width="0.697759" height="0.697759" fill="white"/>
<rect x="8.16211" y="17.3265" width="0.697759" height="0.697759" fill="white"/>
<rect x="8.85986" y="17.3265" width="0.697759" height="0.697759" fill="white"/>
<rect x="9.55762" y="17.3265" width="0.697759" height="0.697759" fill="white"/>
<rect x="10.2556" y="17.3265" width="0.697759" height="0.697759" fill="white"/>
<rect x="10.9534" y="17.3265" width="0.697759" height="0.697759" fill="white"/>
<rect x="11.6511" y="17.3265" width="0.697759" height="0.697759" fill="white"/>
<rect x="12.3489" y="17.3265" width="0.697759" height="0.697759" fill="white"/>
<rect x="13.0466" y="17.3265" width="0.697759" height="0.697759" fill="white"/>
<rect x="13.7444" y="17.3265" width="0.697759" height="0.697759" fill="white"/>
<rect x="14.4421" y="17.3265" width="0.697759" height="0.697759" fill="white"/>
<rect x="1.88232" y="18.0243" width="0.697759" height="0.697759" fill="white"/>
<rect x="2.58008" y="18.0243" width="0.697759" height="0.697759" fill="white"/>
<rect x="3.27783" y="18.0243" width="0.697759" height="0.697759" fill="white"/>
<rect x="3.97559" y="18.0243" width="0.697759" height="0.697759" fill="white"/>
<rect x="4.67334" y="18.0243" width="0.697759" height="0.697759" fill="white"/>
<rect x="5.37109" y="18.0243" width="0.697759" height="0.697759" fill="white"/>
<rect x="6.06885" y="18.0243" width="0.697759" height="0.697759" fill="white"/>
<rect x="6.7666" y="18.0243" width="0.697759" height="0.697759" fill="white"/>
<rect x="7.46436" y="18.0243" width="0.697759" height="0.697759" fill="white"/>
<rect x="8.16211" y="18.0243" width="0.697759" height="0.697759" fill="white"/>
<rect x="8.85986" y="18.0243" width="0.697759" height="0.697759" fill="white"/>
<rect x="9.55762" y="18.0243" width="0.697759" height="0.697759" fill="white"/>
<rect x="10.2556" y="18.0243" width="0.697759" height="0.697759" fill="white"/>
<rect x="10.9534" y="18.0243" width="0.697759" height="0.697759" fill="white"/>
<rect x="11.6511" y="18.0243" width="0.697759" height="0.697759" fill="white"/>
<rect x="12.3489" y="18.0243" width="0.697759" height="0.697759" fill="white"/>
<rect x="13.0466" y="18.0243" width="0.697759" height="0.697759" fill="white"/>
<rect x="3.27783" y="18.722" width="0.697759" height="0.697759" fill="white"/>
<rect x="3.97559" y="18.722" width="0.697759" height="0.697759" fill="white"/>
<rect x="4.67334" y="18.722" width="0.697759" height="0.697759" fill="white"/>
<rect x="5.37109" y="18.722" width="0.697759" height="0.697759" fill="white"/>
<rect x="6.06885" y="18.722" width="0.697759" height="0.697759" fill="white"/>
<rect x="6.7666" y="18.722" width="0.697759" height="0.697759" fill="white"/>
<rect x="7.46436" y="18.722" width="0.697759" height="0.697759" fill="white"/>
<rect x="8.16211" y="18.722" width="0.697759" height="0.697759" fill="white"/>
<rect x="8.85986" y="18.722" width="0.697759" height="0.697759" fill="white"/>
<rect x="9.55762" y="18.722" width="0.697759" height="0.697759" fill="white"/>
<rect x="10.2556" y="18.722" width="0.697759" height="0.697759" fill="white"/>
<rect x="10.9534" y="18.722" width="0.697759" height="0.697759" fill="white"/>
</svg>
